<svg xmlns="http://www.w3.org/2000/svg" xmlns:rdkit="http://www.rdkit.org/xml" xmlns:xlink="http://www.w3.org/1999/xlink" version="1.1" baseProfile="full" xml:space="preserve" width="600px" height="200px" viewBox="0 0 600 200">
<!-- END OF HEADER -->
<rect style="opacity:1.0;fill:#FFFFFF;stroke:none" width="600.0" height="200.0" x="0.0" y="0.0"> </rect>
<path class="bond-0 atom-0 atom-1" d="M 165.9,37.1 L 126.6,65.7" style="fill:none;fill-rule:evenodd;stroke:#000000;stroke-width:2.0px;stroke-linecap:butt;stroke-linejoin:miter;stroke-opacity:1"/>
<path class="bond-1 atom-1 atom-2" d="M 126.6,65.7 L 126.6,114.3" style="fill:none;fill-rule:evenodd;stroke:#000000;stroke-width:2.0px;stroke-linecap:butt;stroke-linejoin:miter;stroke-opacity:1"/>
<path class="bond-2 atom-2 atom-3" d="M 126.6,114.3 L 165.9,142.9" style="fill:none;fill-rule:evenodd;stroke:#000000;stroke-width:2.0px;stroke-linecap:butt;stroke-linejoin:miter;stroke-opacity:1"/>
<path class="bond-3 atom-2 atom-4" d="M 126.6,114.3 L 80.3,129.3" style="fill:none;fill-rule:evenodd;stroke:#000000;stroke-width:2.0px;stroke-linecap:butt;stroke-linejoin:miter;stroke-opacity:1"/>
<path class="bond-4 atom-4 atom-5" d="M 80.3,129.3 L 34.1,114.3" style="fill:none;fill-rule:evenodd;stroke:#000000;stroke-width:2.0px;stroke-linecap:butt;stroke-linejoin:miter;stroke-opacity:1"/>
<path class="bond-5 atom-5 atom-6" d="M 34.1,114.3 L 34.1,65.7" style="fill:none;fill-rule:evenodd;stroke:#000000;stroke-width:2.0px;stroke-linecap:butt;stroke-linejoin:miter;stroke-opacity:1"/>
<path class="bond-6 atom-6 atom-7" d="M 34.1,65.7 L 80.3,50.7" style="fill:none;fill-rule:evenodd;stroke:#000000;stroke-width:2.0px;stroke-linecap:butt;stroke-linejoin:miter;stroke-opacity:1"/>
<path class="bond-7 atom-7 atom-8" d="M 80.3,50.7 L 108.9,90.0" style="fill:none;fill-rule:evenodd;stroke:#000000;stroke-width:2.0px;stroke-linecap:butt;stroke-linejoin:miter;stroke-opacity:1"/>
<path class="bond-8 atom-7 atom-1" d="M 80.3,50.7 L 126.6,65.7" style="fill:none;fill-rule:evenodd;stroke:#000000;stroke-width:2.0px;stroke-linecap:butt;stroke-linejoin:miter;stroke-opacity:1"/>
<path class="bond-9 atom-8 atom-4" d="M 108.9,90.0 L 80.3,129.3" style="fill:none;fill-rule:evenodd;stroke:#000000;stroke-width:2.0px;stroke-linecap:butt;stroke-linejoin:miter;stroke-opacity:1"/>
<path class="legend" d="M 77.6 186.0 Q 77.6 183.5, 78.8 182.0 Q 80.1 180.6, 82.4 180.6 Q 84.7 180.6, 86.0 182.0 Q 87.2 183.5, 87.2 186.0 Q 87.2 188.5, 86.0 190.0 Q 84.7 191.4, 82.4 191.4 Q 80.1 191.4, 78.8 190.0 Q 77.6 188.6, 77.6 186.0 M 82.4 190.2 Q 84.0 190.2, 84.9 189.2 Q 85.7 188.1, 85.7 186.0 Q 85.7 183.9, 84.9 182.9 Q 84.0 181.8, 82.4 181.8 Q 80.8 181.8, 79.9 182.9 Q 79.0 183.9, 79.0 186.0 Q 79.0 188.1, 79.9 189.2 Q 80.8 190.2, 82.4 190.2 " fill="#000000"/>
<path class="legend" d="M 89.1 183.6 L 89.2 184.7 Q 90.0 183.5, 91.4 183.5 Q 91.8 183.5, 92.3 183.7 L 92.1 184.9 Q 91.5 184.8, 91.1 184.8 Q 90.5 184.8, 90.1 185.0 Q 89.7 185.2, 89.4 185.8 L 89.4 191.3 L 88.0 191.3 L 88.0 183.6 L 89.1 183.6 " fill="#000000"/>
<path class="legend" d="M 92.6 180.8 L 93.9 180.8 L 93.9 182.0 L 92.6 182.0 L 92.6 180.8 M 92.6 183.6 L 93.9 183.6 L 93.9 191.3 L 92.6 191.3 L 92.6 183.6 " fill="#000000"/>
<path class="legend" d="M 102.1 183.6 L 102.1 191.7 Q 102.1 195.0, 98.7 195.0 Q 97.0 195.0, 95.5 194.2 L 96.0 193.2 Q 96.8 193.6, 97.3 193.8 Q 97.9 193.9, 98.7 193.9 Q 99.8 193.9, 100.3 193.4 Q 100.7 192.9, 100.7 191.7 L 100.7 190.4 Q 99.9 191.4, 98.6 191.4 Q 97.0 191.4, 96.1 190.4 Q 95.2 189.4, 95.2 187.6 Q 95.2 185.7, 96.2 184.6 Q 97.3 183.5, 99.1 183.5 Q 100.1 183.5, 101.0 183.8 L 101.0 183.6 L 102.1 183.6 M 98.6 190.3 Q 99.4 190.3, 100.0 189.9 Q 100.5 189.4, 100.7 188.7 L 100.7 184.8 Q 100.0 184.6, 99.1 184.6 Q 98.0 184.6, 97.3 185.4 Q 96.6 186.2, 96.6 187.6 Q 96.6 188.9, 97.1 189.6 Q 97.7 190.3, 98.6 190.3 " fill="#000000"/>
<path class="legend" d="M 103.4 180.8 L 104.7 180.8 L 104.7 182.0 L 103.4 182.0 L 103.4 180.8 M 103.4 183.6 L 104.7 183.6 L 104.7 191.3 L 103.4 191.3 L 103.4 183.6 " fill="#000000"/>
<path class="legend" d="M 110.0 183.5 Q 111.2 183.5, 111.9 184.2 Q 112.5 184.9, 112.5 186.2 L 112.5 191.3 L 111.1 191.3 L 111.1 186.3 Q 111.1 185.4, 110.8 185.0 Q 110.4 184.6, 109.6 184.6 Q 108.9 184.6, 108.4 184.9 Q 107.8 185.2, 107.4 185.8 L 107.4 191.3 L 106.0 191.3 L 106.0 183.6 L 107.2 183.6 L 107.3 184.7 Q 108.3 183.5, 110.0 183.5 " fill="#000000"/>
<path class="legend" d="M 113.6 189.2 Q 113.6 188.0, 114.6 187.3 Q 115.6 186.7, 117.4 186.7 L 118.5 186.7 L 118.5 186.4 Q 118.5 185.4, 118.1 185.0 Q 117.7 184.6, 116.8 184.6 Q 116.2 184.6, 115.7 184.7 Q 115.2 184.8, 114.5 185.2 L 114.1 184.2 Q 115.5 183.5, 116.8 183.5 Q 118.4 183.5, 119.2 184.2 Q 119.9 184.9, 119.9 186.4 L 119.9 191.3 L 118.8 191.3 Q 118.8 191.2, 118.8 191.0 Q 118.7 190.8, 118.7 190.4 Q 117.6 191.5, 116.2 191.5 Q 115.0 191.5, 114.3 190.8 Q 113.6 190.2, 113.6 189.2 M 115.0 189.2 Q 115.0 189.7, 115.4 190.1 Q 115.8 190.4, 116.4 190.4 Q 117.0 190.4, 117.6 190.1 Q 118.1 189.8, 118.5 189.3 L 118.5 187.7 L 117.5 187.7 Q 116.3 187.7, 115.7 188.1 Q 115.0 188.4, 115.0 189.2 " fill="#000000"/>
<path class="legend" d="M 121.1 180.0 L 122.4 180.0 L 122.4 191.3 L 121.1 191.3 L 121.1 180.0 " fill="#000000"/>
<path class="bond-0 atom-1 atom-0" d="M 271.6,57.8 L 270.3,58.8" style="fill:none;fill-rule:evenodd;stroke:#000000;stroke-width:1.0px;stroke-linecap:butt;stroke-linejoin:miter;stroke-opacity:1"/>
<path class="bond-0 atom-1 atom-0" d="M 267.5,50.8 L 264.9,52.7" style="fill:none;fill-rule:evenodd;stroke:#000000;stroke-width:1.0px;stroke-linecap:butt;stroke-linejoin:miter;stroke-opacity:1"/>
<path class="bond-0 atom-1 atom-0" d="M 263.4,43.8 L 259.5,46.6" style="fill:none;fill-rule:evenodd;stroke:#000000;stroke-width:1.0px;stroke-linecap:butt;stroke-linejoin:miter;stroke-opacity:1"/>
<path class="bond-0 atom-1 atom-0" d="M 259.3,36.8 L 254.0,40.6" style="fill:none;fill-rule:evenodd;stroke:#000000;stroke-width:1.0px;stroke-linecap:butt;stroke-linejoin:miter;stroke-opacity:1"/>
<path class="bond-0 atom-1 atom-0" d="M 255.2,29.7 L 248.6,34.5" style="fill:none;fill-rule:evenodd;stroke:#000000;stroke-width:1.0px;stroke-linecap:butt;stroke-linejoin:miter;stroke-opacity:1"/>
<path class="bond-0 atom-1 atom-0" d="M 251.1,22.7 L 243.2,28.4" style="fill:none;fill-rule:evenodd;stroke:#000000;stroke-width:1.0px;stroke-linecap:butt;stroke-linejoin:miter;stroke-opacity:1"/>
<path class="bond-1 atom-1 atom-2" d="M 275.7,64.9 L 324.3,64.9" style="fill:none;fill-rule:evenodd;stroke:#000000;stroke-width:2.0px;stroke-linecap:butt;stroke-linejoin:miter;stroke-opacity:1"/>
<path class="bond-2 atom-2 atom-3" d="M 329.7,58.8 L 328.4,57.8" style="fill:none;fill-rule:evenodd;stroke:#000000;stroke-width:1.0px;stroke-linecap:butt;stroke-linejoin:miter;stroke-opacity:1"/>
<path class="bond-2 atom-2 atom-3" d="M 335.1,52.7 L 332.5,50.8" style="fill:none;fill-rule:evenodd;stroke:#000000;stroke-width:1.0px;stroke-linecap:butt;stroke-linejoin:miter;stroke-opacity:1"/>
<path class="bond-2 atom-2 atom-3" d="M 340.5,46.6 L 336.6,43.8" style="fill:none;fill-rule:evenodd;stroke:#000000;stroke-width:1.0px;stroke-linecap:butt;stroke-linejoin:miter;stroke-opacity:1"/>
<path class="bond-2 atom-2 atom-3" d="M 346.0,40.6 L 340.7,36.8" style="fill:none;fill-rule:evenodd;stroke:#000000;stroke-width:1.0px;stroke-linecap:butt;stroke-linejoin:miter;stroke-opacity:1"/>
<path class="bond-2 atom-2 atom-3" d="M 351.4,34.5 L 344.8,29.7" style="fill:none;fill-rule:evenodd;stroke:#000000;stroke-width:1.0px;stroke-linecap:butt;stroke-linejoin:miter;stroke-opacity:1"/>
<path class="bond-2 atom-2 atom-3" d="M 356.8,28.4 L 348.9,22.7" style="fill:none;fill-rule:evenodd;stroke:#000000;stroke-width:1.0px;stroke-linecap:butt;stroke-linejoin:miter;stroke-opacity:1"/>
<path class="bond-3 atom-2 atom-4" d="M 324.3,64.9 L 339.3,111.1" style="fill:none;fill-rule:evenodd;stroke:#000000;stroke-width:2.0px;stroke-linecap:butt;stroke-linejoin:miter;stroke-opacity:1"/>
<path class="bond-4 atom-4 atom-5" d="M 339.3,111.1 L 324.3,157.3" style="fill:none;fill-rule:evenodd;stroke:#000000;stroke-width:2.0px;stroke-linecap:butt;stroke-linejoin:miter;stroke-opacity:1"/>
<path class="bond-5 atom-5 atom-6" d="M 324.3,157.3 L 275.7,157.3" style="fill:none;fill-rule:evenodd;stroke:#000000;stroke-width:2.0px;stroke-linecap:butt;stroke-linejoin:miter;stroke-opacity:1"/>
<path class="bond-6 atom-6 atom-7" d="M 275.7,157.3 L 260.7,111.1" style="fill:none;fill-rule:evenodd;stroke:#000000;stroke-width:2.0px;stroke-linecap:butt;stroke-linejoin:miter;stroke-opacity:1"/>
<path class="bond-7 atom-7 atom-8" d="M 260.7,111.1 L 300.0,82.5" style="fill:none;fill-rule:evenodd;stroke:#000000;stroke-width:2.0px;stroke-linecap:butt;stroke-linejoin:miter;stroke-opacity:1"/>
<path class="bond-8 atom-7 atom-1" d="M 260.7,111.1 L 275.7,64.9" style="fill:none;fill-rule:evenodd;stroke:#000000;stroke-width:2.0px;stroke-linecap:butt;stroke-linejoin:miter;stroke-opacity:1"/>
<path class="bond-9 atom-8 atom-4" d="M 300.0,82.5 L 339.3,111.1" style="fill:none;fill-rule:evenodd;stroke:#000000;stroke-width:2.0px;stroke-linecap:butt;stroke-linejoin:miter;stroke-opacity:1"/>
<path class="bond-10 atom-4 atom-9" d="M 345.8,109.8 L 345.3,108.3" style="fill:none;fill-rule:evenodd;stroke:#000000;stroke-width:1.0px;stroke-linecap:butt;stroke-linejoin:miter;stroke-opacity:1"/>
<path class="bond-10 atom-4 atom-9" d="M 352.4,108.5 L 351.4,105.5" style="fill:none;fill-rule:evenodd;stroke:#000000;stroke-width:1.0px;stroke-linecap:butt;stroke-linejoin:miter;stroke-opacity:1"/>
<path class="bond-10 atom-4 atom-9" d="M 358.9,107.3 L 357.4,102.7" style="fill:none;fill-rule:evenodd;stroke:#000000;stroke-width:1.0px;stroke-linecap:butt;stroke-linejoin:miter;stroke-opacity:1"/>
<path class="bond-10 atom-4 atom-9" d="M 365.4,106.0 L 363.4,99.9" style="fill:none;fill-rule:evenodd;stroke:#000000;stroke-width:1.0px;stroke-linecap:butt;stroke-linejoin:miter;stroke-opacity:1"/>
<path class="bond-10 atom-4 atom-9" d="M 371.9,104.7 L 369.4,97.0" style="fill:none;fill-rule:evenodd;stroke:#000000;stroke-width:1.0px;stroke-linecap:butt;stroke-linejoin:miter;stroke-opacity:1"/>
<path class="bond-10 atom-4 atom-9" d="M 378.4,103.5 L 375.4,94.2" style="fill:none;fill-rule:evenodd;stroke:#000000;stroke-width:1.0px;stroke-linecap:butt;stroke-linejoin:miter;stroke-opacity:1"/>
<path class="bond-11 atom-7 atom-10" d="M 254.7,108.3 L 254.2,109.8" style="fill:none;fill-rule:evenodd;stroke:#000000;stroke-width:1.0px;stroke-linecap:butt;stroke-linejoin:miter;stroke-opacity:1"/>
<path class="bond-11 atom-7 atom-10" d="M 248.6,105.5 L 247.6,108.5" style="fill:none;fill-rule:evenodd;stroke:#000000;stroke-width:1.0px;stroke-linecap:butt;stroke-linejoin:miter;stroke-opacity:1"/>
<path class="bond-11 atom-7 atom-10" d="M 242.6,102.7 L 241.1,107.3" style="fill:none;fill-rule:evenodd;stroke:#000000;stroke-width:1.0px;stroke-linecap:butt;stroke-linejoin:miter;stroke-opacity:1"/>
<path class="bond-11 atom-7 atom-10" d="M 236.6,99.9 L 234.6,106.0" style="fill:none;fill-rule:evenodd;stroke:#000000;stroke-width:1.0px;stroke-linecap:butt;stroke-linejoin:miter;stroke-opacity:1"/>
<path class="bond-11 atom-7 atom-10" d="M 230.6,97.0 L 228.1,104.7" style="fill:none;fill-rule:evenodd;stroke:#000000;stroke-width:1.0px;stroke-linecap:butt;stroke-linejoin:miter;stroke-opacity:1"/>
<path class="bond-11 atom-7 atom-10" d="M 224.6,94.2 L 221.6,103.5" style="fill:none;fill-rule:evenodd;stroke:#000000;stroke-width:1.0px;stroke-linecap:butt;stroke-linejoin:miter;stroke-opacity:1"/>
<path class="atom-9" d="M 380.1 89.2 L 382.0 89.2 L 382.0 95.0 L 389.0 95.0 L 389.0 89.2 L 390.9 89.2 L 390.9 102.9 L 389.0 102.9 L 389.0 96.6 L 382.0 96.6 L 382.0 102.9 L 380.1 102.9 L 380.1 89.2 " fill="#000000"/>
<path class="atom-10" d="M 209.1 89.2 L 211.0 89.2 L 211.0 95.0 L 218.0 95.0 L 218.0 89.2 L 219.9 89.2 L 219.9 102.9 L 218.0 102.9 L 218.0 96.6 L 211.0 96.6 L 211.0 102.9 L 209.1 102.9 L 209.1 89.2 " fill="#000000"/>
<path class="note" d="M 278.4 51.5 Q 278.4 50.1, 278.8 49.0 Q 279.2 47.8, 280.0 46.6 L 280.5 46.9 Q 279.9 48.1, 279.5 49.1 Q 279.2 50.2, 279.2 51.5 Q 279.2 52.8, 279.5 53.9 Q 279.9 54.9, 280.5 56.1 L 280.0 56.4 Q 279.2 55.2, 278.8 54.1 Q 278.4 52.9, 278.4 51.5 " fill="#000000"/>
<path class="note" d="M 281.0 53.2 Q 281.1 53.2, 281.4 53.4 Q 281.7 53.5, 282.1 53.6 Q 282.4 53.7, 282.8 53.7 Q 283.4 53.7, 283.8 53.4 Q 284.2 53.1, 284.2 52.5 Q 284.2 52.1, 284.0 51.9 Q 283.8 51.7, 283.5 51.5 Q 283.2 51.4, 282.7 51.3 Q 282.1 51.1, 281.8 50.9 Q 281.4 50.7, 281.1 50.4 Q 280.9 50.0, 280.9 49.4 Q 280.9 48.5, 281.5 48.0 Q 282.1 47.4, 283.2 47.4 Q 284.0 47.4, 284.9 47.8 L 284.7 48.6 Q 283.9 48.2, 283.3 48.2 Q 282.6 48.2, 282.2 48.5 Q 281.9 48.8, 281.9 49.2 Q 281.9 49.6, 282.0 49.8 Q 282.2 50.1, 282.5 50.2 Q 282.8 50.3, 283.3 50.5 Q 283.9 50.7, 284.3 50.8 Q 284.6 51.0, 284.9 51.4 Q 285.2 51.8, 285.2 52.5 Q 285.2 53.5, 284.5 54.0 Q 283.9 54.5, 282.8 54.5 Q 282.2 54.5, 281.7 54.3 Q 281.3 54.2, 280.7 54.0 L 281.0 53.2 " fill="#000000"/>
<path class="note" d="M 287.8 51.5 Q 287.8 52.9, 287.3 54.1 Q 286.9 55.2, 286.2 56.4 L 285.6 56.1 Q 286.2 54.9, 286.6 53.9 Q 286.9 52.8, 286.9 51.5 Q 286.9 50.2, 286.6 49.1 Q 286.2 48.1, 285.6 46.9 L 286.2 46.6 Q 286.9 47.8, 287.3 49.0 Q 287.8 50.1, 287.8 51.5 " fill="#000000"/>
<path class="note" d="M 312.2 51.5 Q 312.2 50.1, 312.6 49.0 Q 313.0 47.8, 313.8 46.6 L 314.3 46.9 Q 313.7 48.1, 313.4 49.1 Q 313.1 50.2, 313.1 51.5 Q 313.1 52.8, 313.4 53.9 Q 313.7 54.9, 314.3 56.1 L 313.8 56.4 Q 313.0 55.2, 312.6 54.1 Q 312.2 52.9, 312.2 51.5 " fill="#000000"/>
<path class="note" d="M 318.3 54.3 L 316.6 51.5 L 316.6 51.5 L 315.5 51.5 L 315.5 54.3 L 314.6 54.3 L 314.6 47.4 L 316.6 47.4 Q 317.8 47.4, 318.4 47.9 Q 319.0 48.5, 319.0 49.4 Q 319.0 50.2, 318.6 50.7 Q 318.3 51.1, 317.6 51.3 L 319.3 54.3 L 318.3 54.3 M 315.5 50.7 L 316.6 50.7 Q 317.3 50.7, 317.6 50.4 Q 318.0 50.0, 318.0 49.4 Q 318.0 48.8, 317.6 48.5 Q 317.3 48.2, 316.6 48.2 L 315.5 48.2 L 315.5 50.7 " fill="#000000"/>
<path class="note" d="M 321.7 51.5 Q 321.7 52.9, 321.3 54.1 Q 320.9 55.2, 320.1 56.4 L 319.5 56.1 Q 320.2 54.9, 320.5 53.9 Q 320.8 52.8, 320.8 51.5 Q 320.8 50.2, 320.5 49.1 Q 320.2 48.1, 319.5 46.9 L 320.1 46.6 Q 320.9 47.8, 321.3 49.0 Q 321.7 50.1, 321.7 51.5 " fill="#000000"/>
<path class="note" d="M 318.4 112.2 Q 318.4 110.8, 318.8 109.6 Q 319.2 108.5, 320.0 107.2 L 320.6 107.6 Q 319.9 108.7, 319.6 109.8 Q 319.3 110.8, 319.3 112.2 Q 319.3 113.5, 319.6 114.5 Q 319.9 115.5, 320.6 116.7 L 320.0 117.1 Q 319.2 115.9, 318.8 114.7 Q 318.4 113.6, 318.4 112.2 " fill="#000000"/>
<path class="note" d="M 321.1 113.9 Q 321.1 113.9, 321.5 114.0 Q 321.8 114.2, 322.1 114.3 Q 322.5 114.3, 322.8 114.3 Q 323.5 114.3, 323.9 114.0 Q 324.3 113.7, 324.3 113.1 Q 324.3 112.8, 324.1 112.5 Q 323.9 112.3, 323.6 112.2 Q 323.3 112.0, 322.8 111.9 Q 322.2 111.7, 321.8 111.5 Q 321.5 111.4, 321.2 111.0 Q 320.9 110.6, 320.9 110.0 Q 320.9 109.1, 321.5 108.6 Q 322.1 108.1, 323.3 108.1 Q 324.1 108.1, 325.0 108.5 L 324.8 109.2 Q 323.9 108.9, 323.3 108.9 Q 322.6 108.9, 322.3 109.1 Q 321.9 109.4, 321.9 109.9 Q 321.9 110.3, 322.1 110.5 Q 322.3 110.7, 322.6 110.8 Q 322.9 111.0, 323.3 111.1 Q 323.9 111.3, 324.3 111.5 Q 324.7 111.7, 324.9 112.1 Q 325.2 112.5, 325.2 113.1 Q 325.2 114.1, 324.6 114.6 Q 323.9 115.1, 322.9 115.1 Q 322.3 115.1, 321.8 115.0 Q 321.3 114.9, 320.8 114.6 L 321.1 113.9 " fill="#000000"/>
<path class="note" d="M 327.8 112.2 Q 327.8 113.6, 327.4 114.7 Q 327.0 115.9, 326.2 117.1 L 325.7 116.7 Q 326.3 115.5, 326.6 114.5 Q 326.9 113.5, 326.9 112.2 Q 326.9 110.8, 326.6 109.8 Q 326.3 108.7, 325.7 107.6 L 326.2 107.2 Q 327.0 108.5, 327.4 109.6 Q 327.8 110.8, 327.8 112.2 " fill="#000000"/>
<path class="note" d="M 249.9 117.6 Q 249.9 116.2, 250.3 115.0 Q 250.7 113.9, 251.5 112.7 L 252.1 113.0 Q 251.4 114.2, 251.1 115.2 Q 250.8 116.3, 250.8 117.6 Q 250.8 118.9, 251.1 119.9 Q 251.4 121.0, 252.1 122.2 L 251.5 122.5 Q 250.7 121.3, 250.3 120.1 Q 249.9 119.0, 249.9 117.6 " fill="#000000"/>
<path class="note" d="M 256.0 120.4 L 254.4 117.5 L 254.3 117.5 L 253.2 117.5 L 253.2 120.4 L 252.3 120.4 L 252.3 113.5 L 254.3 113.5 Q 255.5 113.5, 256.1 114.0 Q 256.7 114.5, 256.7 115.5 Q 256.7 116.2, 256.3 116.7 Q 256.0 117.2, 255.3 117.4 L 257.0 120.4 L 256.0 120.4 M 253.2 116.7 L 254.3 116.7 Q 255.0 116.7, 255.4 116.4 Q 255.7 116.1, 255.7 115.5 Q 255.7 114.9, 255.4 114.6 Q 255.0 114.2, 254.3 114.2 L 253.2 114.2 L 253.2 116.7 " fill="#000000"/>
<path class="note" d="M 259.4 117.6 Q 259.4 119.0, 259.0 120.1 Q 258.6 121.3, 257.8 122.5 L 257.3 122.2 Q 257.9 121.0, 258.2 119.9 Q 258.5 118.9, 258.5 117.6 Q 258.5 116.3, 258.2 115.2 Q 257.9 114.2, 257.3 113.0 L 257.8 112.7 Q 258.6 113.9, 259.0 115.0 Q 259.4 116.2, 259.4 117.6 " fill="#000000"/>
<path class="legend" d="M 270.5 182.0 L 267.3 182.0 L 267.3 180.8 L 275.1 180.8 L 275.1 182.0 L 272.0 182.0 L 272.0 191.3 L 270.5 191.3 L 270.5 182.0 " fill="#000000"/>
<path class="legend" d="M 275.1 187.5 Q 275.1 185.6, 276.0 184.6 Q 276.9 183.5, 278.7 183.5 Q 280.3 183.5, 281.1 184.5 Q 281.9 185.5, 281.9 187.4 L 281.9 187.7 L 276.5 187.7 Q 276.5 189.0, 277.1 189.7 Q 277.7 190.4, 278.8 190.4 Q 279.4 190.4, 279.9 190.2 Q 280.5 190.1, 281.2 189.8 L 281.6 190.7 Q 280.8 191.1, 280.1 191.3 Q 279.4 191.5, 278.7 191.5 Q 277.0 191.5, 276.0 190.4 Q 275.1 189.4, 275.1 187.5 M 278.7 184.6 Q 277.8 184.6, 277.2 185.1 Q 276.7 185.6, 276.6 186.6 L 280.4 186.6 Q 280.3 185.6, 279.9 185.1 Q 279.4 184.6, 278.7 184.6 " fill="#000000"/>
<path class="legend" d="M 291.3 183.5 Q 292.6 183.5, 293.3 184.2 Q 293.9 184.9, 293.9 186.3 L 293.9 191.3 L 292.5 191.3 L 292.5 186.4 Q 292.5 185.5, 292.1 185.0 Q 291.8 184.6, 291.0 184.6 Q 290.4 184.6, 289.8 185.0 Q 289.2 185.3, 288.9 185.8 Q 288.9 186.0, 288.9 186.3 L 288.9 191.3 L 287.5 191.3 L 287.5 186.4 Q 287.5 185.5, 287.1 185.0 Q 286.8 184.6, 286.0 184.6 Q 285.3 184.6, 284.8 185.0 Q 284.2 185.3, 283.8 185.8 L 283.8 191.3 L 282.4 191.3 L 282.4 183.7 L 283.6 183.7 L 283.7 184.7 Q 284.7 183.5, 286.3 183.5 Q 288.1 183.5, 288.6 184.9 Q 289.7 183.5, 291.3 183.5 " fill="#000000"/>
<path class="legend" d="M 298.6 183.5 Q 300.2 183.5, 301.1 184.5 Q 302.0 185.5, 302.0 187.4 Q 302.0 189.3, 300.9 190.4 Q 299.9 191.5, 298.1 191.5 Q 297.2 191.5, 296.5 191.2 L 296.5 195.0 L 295.1 195.0 L 295.1 183.7 L 296.2 183.7 L 296.4 184.6 Q 296.8 184.1, 297.3 183.8 Q 297.9 183.5, 298.6 183.5 M 298.1 190.4 Q 299.2 190.4, 299.9 189.6 Q 300.6 188.8, 300.6 187.4 Q 300.6 186.1, 300.0 185.3 Q 299.5 184.6, 298.5 184.6 Q 297.8 184.6, 297.2 185.0 Q 296.7 185.4, 296.5 186.2 L 296.5 190.1 Q 297.2 190.4, 298.1 190.4 " fill="#000000"/>
<path class="legend" d="M 302.7 180.0 L 304.1 180.0 L 304.1 191.3 L 302.7 191.3 L 302.7 180.0 " fill="#000000"/>
<path class="legend" d="M 305.3 189.3 Q 305.3 188.0, 306.3 187.4 Q 307.3 186.7, 309.1 186.7 L 310.3 186.7 L 310.3 186.4 Q 310.3 185.4, 309.9 185.0 Q 309.5 184.6, 308.5 184.6 Q 307.9 184.6, 307.4 184.8 Q 306.9 184.9, 306.2 185.2 L 305.8 184.2 Q 307.2 183.5, 308.5 183.5 Q 310.2 183.5, 310.9 184.2 Q 311.7 184.9, 311.7 186.4 L 311.7 191.3 L 310.6 191.3 Q 310.6 191.3, 310.5 191.1 Q 310.5 190.8, 310.4 190.4 Q 309.3 191.5, 307.9 191.5 Q 306.7 191.5, 306.0 190.9 Q 305.3 190.3, 305.3 189.3 M 306.7 189.2 Q 306.7 189.8, 307.1 190.1 Q 307.5 190.4, 308.1 190.4 Q 308.7 190.4, 309.3 190.1 Q 309.9 189.9, 310.3 189.4 L 310.3 187.7 L 309.2 187.7 Q 308.0 187.7, 307.4 188.1 Q 306.7 188.5, 306.7 189.2 " fill="#000000"/>
<path class="legend" d="M 312.8 184.7 L 312.8 183.7 L 314.3 183.7 L 314.5 181.4 L 315.6 181.4 L 315.6 183.7 L 317.9 183.7 L 317.9 184.7 L 315.6 184.7 L 315.6 189.0 Q 315.6 190.3, 316.7 190.3 Q 317.1 190.3, 317.8 190.1 L 318.0 191.1 Q 317.2 191.4, 316.4 191.4 Q 315.4 191.4, 314.8 190.8 Q 314.2 190.2, 314.2 189.1 L 314.2 184.7 L 312.8 184.7 " fill="#000000"/>
<path class="legend" d="M 318.4 187.5 Q 318.4 185.6, 319.3 184.6 Q 320.3 183.5, 322.0 183.5 Q 323.7 183.5, 324.4 184.5 Q 325.2 185.5, 325.2 187.4 L 325.2 187.7 L 319.8 187.7 Q 319.9 189.0, 320.4 189.7 Q 321.0 190.4, 322.1 190.4 Q 322.7 190.4, 323.3 190.2 Q 323.8 190.1, 324.5 189.8 L 324.9 190.7 Q 324.1 191.1, 323.4 191.3 Q 322.8 191.5, 322.0 191.5 Q 320.3 191.5, 319.4 190.4 Q 318.4 189.4, 318.4 187.5 M 322.0 184.6 Q 321.1 184.6, 320.6 185.1 Q 320.1 185.6, 319.9 186.6 L 323.7 186.6 Q 323.6 185.6, 323.2 185.1 Q 322.8 184.6, 322.0 184.6 " fill="#000000"/>
<path class="legend" d="M 332.7 180.0 L 332.7 191.3 L 331.6 191.3 L 331.4 190.4 Q 330.6 191.5, 329.1 191.5 Q 327.5 191.5, 326.6 190.5 Q 325.8 189.5, 325.8 187.6 Q 325.8 185.7, 326.8 184.6 Q 327.9 183.5, 329.7 183.5 Q 330.5 183.5, 331.3 183.7 L 331.3 180.0 L 332.7 180.0 M 329.2 190.4 Q 330.0 190.4, 330.6 189.9 Q 331.1 189.5, 331.3 188.7 L 331.3 184.9 Q 330.6 184.6, 329.7 184.6 Q 328.5 184.6, 327.9 185.4 Q 327.2 186.2, 327.2 187.6 Q 327.2 188.9, 327.7 189.7 Q 328.3 190.4, 329.2 190.4 " fill="#000000"/>
<path class="bond-0 atom-1 atom-0" d="M 471.6,57.8 L 470.3,58.8" style="fill:none;fill-rule:evenodd;stroke:#000000;stroke-width:1.0px;stroke-linecap:butt;stroke-linejoin:miter;stroke-opacity:1"/>
<path class="bond-0 atom-1 atom-0" d="M 467.5,50.8 L 464.9,52.7" style="fill:none;fill-rule:evenodd;stroke:#000000;stroke-width:1.0px;stroke-linecap:butt;stroke-linejoin:miter;stroke-opacity:1"/>
<path class="bond-0 atom-1 atom-0" d="M 463.4,43.8 L 459.5,46.6" style="fill:none;fill-rule:evenodd;stroke:#000000;stroke-width:1.0px;stroke-linecap:butt;stroke-linejoin:miter;stroke-opacity:1"/>
<path class="bond-0 atom-1 atom-0" d="M 459.3,36.8 L 454.0,40.6" style="fill:none;fill-rule:evenodd;stroke:#000000;stroke-width:1.0px;stroke-linecap:butt;stroke-linejoin:miter;stroke-opacity:1"/>
<path class="bond-0 atom-1 atom-0" d="M 455.2,29.7 L 448.6,34.5" style="fill:none;fill-rule:evenodd;stroke:#000000;stroke-width:1.0px;stroke-linecap:butt;stroke-linejoin:miter;stroke-opacity:1"/>
<path class="bond-0 atom-1 atom-0" d="M 451.1,22.7 L 443.2,28.4" style="fill:none;fill-rule:evenodd;stroke:#000000;stroke-width:1.0px;stroke-linecap:butt;stroke-linejoin:miter;stroke-opacity:1"/>
<path class="bond-1 atom-1 atom-2" d="M 475.7,64.9 L 524.3,64.9" style="fill:none;fill-rule:evenodd;stroke:#000000;stroke-width:2.0px;stroke-linecap:butt;stroke-linejoin:miter;stroke-opacity:1"/>
<path class="bond-2 atom-2 atom-3" d="M 529.7,58.8 L 528.4,57.8" style="fill:none;fill-rule:evenodd;stroke:#000000;stroke-width:1.0px;stroke-linecap:butt;stroke-linejoin:miter;stroke-opacity:1"/>
<path class="bond-2 atom-2 atom-3" d="M 535.1,52.7 L 532.5,50.8" style="fill:none;fill-rule:evenodd;stroke:#000000;stroke-width:1.0px;stroke-linecap:butt;stroke-linejoin:miter;stroke-opacity:1"/>
<path class="bond-2 atom-2 atom-3" d="M 540.5,46.6 L 536.6,43.8" style="fill:none;fill-rule:evenodd;stroke:#000000;stroke-width:1.0px;stroke-linecap:butt;stroke-linejoin:miter;stroke-opacity:1"/>
<path class="bond-2 atom-2 atom-3" d="M 546.0,40.6 L 540.7,36.8" style="fill:none;fill-rule:evenodd;stroke:#000000;stroke-width:1.0px;stroke-linecap:butt;stroke-linejoin:miter;stroke-opacity:1"/>
<path class="bond-2 atom-2 atom-3" d="M 551.4,34.5 L 544.8,29.7" style="fill:none;fill-rule:evenodd;stroke:#000000;stroke-width:1.0px;stroke-linecap:butt;stroke-linejoin:miter;stroke-opacity:1"/>
<path class="bond-2 atom-2 atom-3" d="M 556.8,28.4 L 548.9,22.7" style="fill:none;fill-rule:evenodd;stroke:#000000;stroke-width:1.0px;stroke-linecap:butt;stroke-linejoin:miter;stroke-opacity:1"/>
<path class="bond-3 atom-2 atom-4" d="M 524.3,64.9 L 539.3,111.1" style="fill:none;fill-rule:evenodd;stroke:#000000;stroke-width:2.0px;stroke-linecap:butt;stroke-linejoin:miter;stroke-opacity:1"/>
<path class="bond-4 atom-4 atom-5" d="M 539.3,111.1 L 524.3,157.3" style="fill:none;fill-rule:evenodd;stroke:#000000;stroke-width:2.0px;stroke-linecap:butt;stroke-linejoin:miter;stroke-opacity:1"/>
<path class="bond-5 atom-5 atom-6" d="M 524.3,157.3 L 475.7,157.3" style="fill:none;fill-rule:evenodd;stroke:#000000;stroke-width:2.0px;stroke-linecap:butt;stroke-linejoin:miter;stroke-opacity:1"/>
<path class="bond-6 atom-6 atom-7" d="M 475.7,157.3 L 460.7,111.1" style="fill:none;fill-rule:evenodd;stroke:#000000;stroke-width:2.0px;stroke-linecap:butt;stroke-linejoin:miter;stroke-opacity:1"/>
<path class="bond-7 atom-7 atom-8" d="M 460.7,111.1 L 500.0,82.5" style="fill:none;fill-rule:evenodd;stroke:#000000;stroke-width:2.0px;stroke-linecap:butt;stroke-linejoin:miter;stroke-opacity:1"/>
<path class="bond-8 atom-7 atom-1" d="M 460.7,111.1 L 475.7,64.9" style="fill:none;fill-rule:evenodd;stroke:#000000;stroke-width:2.0px;stroke-linecap:butt;stroke-linejoin:miter;stroke-opacity:1"/>
<path class="bond-9 atom-8 atom-4" d="M 500.0,82.5 L 539.3,111.1" style="fill:none;fill-rule:evenodd;stroke:#000000;stroke-width:2.0px;stroke-linecap:butt;stroke-linejoin:miter;stroke-opacity:1"/>
<path class="bond-10 atom-4 atom-9" d="M 545.8,109.8 L 545.3,108.3" style="fill:none;fill-rule:evenodd;stroke:#000000;stroke-width:1.0px;stroke-linecap:butt;stroke-linejoin:miter;stroke-opacity:1"/>
<path class="bond-10 atom-4 atom-9" d="M 552.4,108.5 L 551.4,105.5" style="fill:none;fill-rule:evenodd;stroke:#000000;stroke-width:1.0px;stroke-linecap:butt;stroke-linejoin:miter;stroke-opacity:1"/>
<path class="bond-10 atom-4 atom-9" d="M 558.9,107.3 L 557.4,102.7" style="fill:none;fill-rule:evenodd;stroke:#000000;stroke-width:1.0px;stroke-linecap:butt;stroke-linejoin:miter;stroke-opacity:1"/>
<path class="bond-10 atom-4 atom-9" d="M 565.4,106.0 L 563.4,99.9" style="fill:none;fill-rule:evenodd;stroke:#000000;stroke-width:1.0px;stroke-linecap:butt;stroke-linejoin:miter;stroke-opacity:1"/>
<path class="bond-10 atom-4 atom-9" d="M 571.9,104.7 L 569.4,97.0" style="fill:none;fill-rule:evenodd;stroke:#000000;stroke-width:1.0px;stroke-linecap:butt;stroke-linejoin:miter;stroke-opacity:1"/>
<path class="bond-10 atom-4 atom-9" d="M 578.4,103.5 L 575.4,94.2" style="fill:none;fill-rule:evenodd;stroke:#000000;stroke-width:1.0px;stroke-linecap:butt;stroke-linejoin:miter;stroke-opacity:1"/>
<path class="bond-11 atom-7 atom-10" d="M 454.7,108.3 L 454.2,109.8" style="fill:none;fill-rule:evenodd;stroke:#000000;stroke-width:1.0px;stroke-linecap:butt;stroke-linejoin:miter;stroke-opacity:1"/>
<path class="bond-11 atom-7 atom-10" d="M 448.6,105.5 L 447.6,108.5" style="fill:none;fill-rule:evenodd;stroke:#000000;stroke-width:1.0px;stroke-linecap:butt;stroke-linejoin:miter;stroke-opacity:1"/>
<path class="bond-11 atom-7 atom-10" d="M 442.6,102.7 L 441.1,107.3" style="fill:none;fill-rule:evenodd;stroke:#000000;stroke-width:1.0px;stroke-linecap:butt;stroke-linejoin:miter;stroke-opacity:1"/>
<path class="bond-11 atom-7 atom-10" d="M 436.6,99.9 L 434.6,106.0" style="fill:none;fill-rule:evenodd;stroke:#000000;stroke-width:1.0px;stroke-linecap:butt;stroke-linejoin:miter;stroke-opacity:1"/>
<path class="bond-11 atom-7 atom-10" d="M 430.6,97.0 L 428.1,104.7" style="fill:none;fill-rule:evenodd;stroke:#000000;stroke-width:1.0px;stroke-linecap:butt;stroke-linejoin:miter;stroke-opacity:1"/>
<path class="bond-11 atom-7 atom-10" d="M 424.6,94.2 L 421.6,103.5" style="fill:none;fill-rule:evenodd;stroke:#000000;stroke-width:1.0px;stroke-linecap:butt;stroke-linejoin:miter;stroke-opacity:1"/>
<path class="atom-9" d="M 580.1 89.2 L 582.0 89.2 L 582.0 95.0 L 589.0 95.0 L 589.0 89.2 L 590.9 89.2 L 590.9 102.9 L 589.0 102.9 L 589.0 96.6 L 582.0 96.6 L 582.0 102.9 L 580.1 102.9 L 580.1 89.2 " fill="#000000"/>
<path class="atom-10" d="M 409.1 89.2 L 411.0 89.2 L 411.0 95.0 L 418.0 95.0 L 418.0 89.2 L 419.9 89.2 L 419.9 102.9 L 418.0 102.9 L 418.0 96.6 L 411.0 96.6 L 411.0 102.9 L 409.1 102.9 L 409.1 89.2 " fill="#000000"/>
<path class="note" d="M 478.4 51.5 Q 478.4 50.1, 478.8 49.0 Q 479.2 47.8, 480.0 46.6 L 480.5 46.9 Q 479.9 48.1, 479.5 49.1 Q 479.2 50.2, 479.2 51.5 Q 479.2 52.8, 479.5 53.9 Q 479.9 54.9, 480.5 56.1 L 480.0 56.4 Q 479.2 55.2, 478.8 54.1 Q 478.4 52.9, 478.4 51.5 " fill="#000000"/>
<path class="note" d="M 481.0 53.2 Q 481.1 53.2, 481.4 53.4 Q 481.7 53.5, 482.1 53.6 Q 482.4 53.7, 482.8 53.7 Q 483.4 53.7, 483.8 53.4 Q 484.2 53.1, 484.2 52.5 Q 484.2 52.1, 484.0 51.9 Q 483.8 51.7, 483.5 51.5 Q 483.2 51.4, 482.7 51.3 Q 482.1 51.1, 481.8 50.9 Q 481.4 50.7, 481.1 50.4 Q 480.9 50.0, 480.9 49.4 Q 480.9 48.5, 481.5 48.0 Q 482.1 47.4, 483.2 47.4 Q 484.0 47.4, 484.9 47.8 L 484.7 48.6 Q 483.9 48.2, 483.3 48.2 Q 482.6 48.2, 482.2 48.5 Q 481.9 48.8, 481.9 49.2 Q 481.9 49.6, 482.0 49.8 Q 482.2 50.1, 482.5 50.2 Q 482.8 50.3, 483.3 50.5 Q 483.9 50.7, 484.3 50.8 Q 484.6 51.0, 484.9 51.4 Q 485.2 51.8, 485.2 52.5 Q 485.2 53.5, 484.5 54.0 Q 483.9 54.5, 482.8 54.5 Q 482.2 54.5, 481.7 54.3 Q 481.3 54.2, 480.7 54.0 L 481.0 53.2 " fill="#000000"/>
<path class="note" d="M 487.8 51.5 Q 487.8 52.9, 487.3 54.1 Q 486.9 55.2, 486.2 56.4 L 485.6 56.1 Q 486.2 54.9, 486.6 53.9 Q 486.9 52.8, 486.9 51.5 Q 486.9 50.2, 486.6 49.1 Q 486.2 48.1, 485.6 46.9 L 486.2 46.6 Q 486.9 47.8, 487.3 49.0 Q 487.8 50.1, 487.8 51.5 " fill="#000000"/>
<path class="note" d="M 512.2 51.5 Q 512.2 50.1, 512.6 49.0 Q 513.0 47.8, 513.8 46.6 L 514.3 46.9 Q 513.7 48.1, 513.4 49.1 Q 513.1 50.2, 513.1 51.5 Q 513.1 52.8, 513.4 53.9 Q 513.7 54.9, 514.3 56.1 L 513.8 56.4 Q 513.0 55.2, 512.6 54.1 Q 512.2 52.9, 512.2 51.5 " fill="#000000"/>
<path class="note" d="M 518.3 54.3 L 516.6 51.5 L 516.6 51.5 L 515.5 51.5 L 515.5 54.3 L 514.6 54.3 L 514.6 47.4 L 516.6 47.4 Q 517.8 47.4, 518.4 47.9 Q 519.0 48.5, 519.0 49.4 Q 519.0 50.2, 518.6 50.7 Q 518.3 51.1, 517.6 51.3 L 519.3 54.3 L 518.3 54.3 M 515.5 50.7 L 516.6 50.7 Q 517.3 50.7, 517.6 50.4 Q 518.0 50.0, 518.0 49.4 Q 518.0 48.8, 517.6 48.5 Q 517.3 48.2, 516.6 48.2 L 515.5 48.2 L 515.5 50.7 " fill="#000000"/>
<path class="note" d="M 521.7 51.5 Q 521.7 52.9, 521.3 54.1 Q 520.9 55.2, 520.1 56.4 L 519.5 56.1 Q 520.2 54.9, 520.5 53.9 Q 520.8 52.8, 520.8 51.5 Q 520.8 50.2, 520.5 49.1 Q 520.2 48.1, 519.5 46.9 L 520.1 46.6 Q 520.9 47.8, 521.3 49.0 Q 521.7 50.1, 521.7 51.5 " fill="#000000"/>
<path class="note" d="M 518.4 112.2 Q 518.4 110.8, 518.8 109.6 Q 519.2 108.5, 520.0 107.2 L 520.6 107.6 Q 519.9 108.7, 519.6 109.8 Q 519.3 110.8, 519.3 112.2 Q 519.3 113.5, 519.6 114.5 Q 519.9 115.5, 520.6 116.7 L 520.0 117.1 Q 519.2 115.9, 518.8 114.7 Q 518.4 113.6, 518.4 112.2 " fill="#000000"/>
<path class="note" d="M 521.1 113.9 Q 521.1 113.9, 521.5 114.0 Q 521.8 114.2, 522.1 114.3 Q 522.5 114.3, 522.8 114.3 Q 523.5 114.3, 523.9 114.0 Q 524.3 113.7, 524.3 113.1 Q 524.3 112.8, 524.1 112.5 Q 523.9 112.3, 523.6 112.2 Q 523.3 112.0, 522.8 111.9 Q 522.2 111.7, 521.8 111.5 Q 521.5 111.4, 521.2 111.0 Q 520.9 110.6, 520.9 110.0 Q 520.9 109.1, 521.5 108.6 Q 522.1 108.1, 523.3 108.1 Q 524.1 108.1, 525.0 108.5 L 524.8 109.2 Q 523.9 108.9, 523.3 108.9 Q 522.6 108.9, 522.3 109.1 Q 521.9 109.4, 521.9 109.9 Q 521.9 110.3, 522.1 110.5 Q 522.3 110.7, 522.6 110.8 Q 522.9 111.0, 523.3 111.1 Q 523.9 111.3, 524.3 111.5 Q 524.7 111.7, 524.9 112.1 Q 525.2 112.5, 525.2 113.1 Q 525.2 114.1, 524.6 114.6 Q 523.9 115.1, 522.9 115.1 Q 522.3 115.1, 521.8 115.0 Q 521.3 114.9, 520.8 114.6 L 521.1 113.9 " fill="#000000"/>
<path class="note" d="M 527.8 112.2 Q 527.8 113.6, 527.4 114.7 Q 527.0 115.9, 526.2 117.1 L 525.7 116.7 Q 526.3 115.5, 526.6 114.5 Q 526.9 113.5, 526.9 112.2 Q 526.9 110.8, 526.6 109.8 Q 526.3 108.7, 525.7 107.6 L 526.2 107.2 Q 527.0 108.5, 527.4 109.6 Q 527.8 110.8, 527.8 112.2 " fill="#000000"/>
<path class="note" d="M 449.9 117.6 Q 449.9 116.2, 450.3 115.0 Q 450.7 113.9, 451.5 112.7 L 452.1 113.0 Q 451.4 114.2, 451.1 115.2 Q 450.8 116.3, 450.8 117.6 Q 450.8 118.9, 451.1 119.9 Q 451.4 121.0, 452.1 122.2 L 451.5 122.5 Q 450.7 121.3, 450.3 120.1 Q 449.9 119.0, 449.9 117.6 " fill="#000000"/>
<path class="note" d="M 456.0 120.4 L 454.4 117.5 L 454.3 117.5 L 453.2 117.5 L 453.2 120.4 L 452.3 120.4 L 452.3 113.5 L 454.3 113.5 Q 455.5 113.5, 456.1 114.0 Q 456.7 114.5, 456.7 115.5 Q 456.7 116.2, 456.3 116.7 Q 456.0 117.2, 455.3 117.4 L 457.0 120.4 L 456.0 120.4 M 453.2 116.7 L 454.3 116.7 Q 455.0 116.7, 455.4 116.4 Q 455.7 116.1, 455.7 115.5 Q 455.7 114.9, 455.4 114.6 Q 455.0 114.2, 454.3 114.2 L 453.2 114.2 L 453.2 116.7 " fill="#000000"/>
<path class="note" d="M 459.4 117.6 Q 459.4 119.0, 459.0 120.1 Q 458.6 121.3, 457.8 122.5 L 457.3 122.2 Q 457.9 121.0, 458.2 119.9 Q 458.5 118.9, 458.5 117.6 Q 458.5 116.3, 458.2 115.2 Q 457.9 114.2, 457.3 113.0 L 457.8 112.7 Q 458.6 113.9, 459.0 115.0 Q 459.4 116.2, 459.4 117.6 " fill="#000000"/>
<path class="legend" d="M 473.6 192.5 L 470.8 187.8 L 470.8 187.8 L 469.0 187.8 L 469.0 192.5 L 467.5 192.5 L 467.5 181.2 L 470.8 181.2 Q 472.7 181.2, 473.7 182.1 Q 474.7 182.9, 474.7 184.5 Q 474.7 185.7, 474.1 186.5 Q 473.5 187.3, 472.4 187.6 L 475.2 192.5 L 473.6 192.5 M 469.0 186.6 L 470.8 186.6 Q 471.9 186.6, 472.5 186.0 Q 473.1 185.5, 473.1 184.5 Q 473.1 183.5, 472.5 183.0 Q 471.9 182.5, 470.8 182.5 L 469.0 182.5 L 469.0 186.6 " fill="#000000"/>
<path class="legend" d="M 475.6 188.4 Q 475.6 186.4, 476.6 185.3 Q 477.6 184.1, 479.5 184.1 Q 481.3 184.1, 482.1 185.2 Q 482.9 186.3, 482.9 188.3 L 482.9 188.6 L 477.2 188.6 Q 477.2 190.0, 477.8 190.7 Q 478.4 191.4, 479.6 191.4 Q 480.3 191.4, 480.8 191.3 Q 481.4 191.1, 482.2 190.8 L 482.6 191.8 Q 481.8 192.3, 481.0 192.5 Q 480.3 192.6, 479.5 192.6 Q 477.7 192.6, 476.7 191.5 Q 475.6 190.4, 475.6 188.4 M 479.5 185.3 Q 478.5 185.3, 478.0 185.9 Q 477.4 186.4, 477.2 187.5 L 481.3 187.5 Q 481.2 186.4, 480.8 185.8 Q 480.3 185.3, 479.5 185.3 " fill="#000000"/>
<path class="legend" d="M 483.5 185.4 L 483.5 184.3 L 485.0 184.3 L 485.0 183.1 Q 485.0 181.7, 485.7 181.0 Q 486.4 180.3, 487.6 180.3 Q 488.1 180.3, 488.6 180.5 Q 489.0 180.6, 489.6 180.8 L 489.1 181.8 Q 488.4 181.5, 487.7 181.5 Q 487.1 181.5, 486.8 181.9 Q 486.5 182.3, 486.5 183.0 L 486.5 184.3 L 489.0 184.3 L 489.0 185.4 L 486.5 185.4 L 486.5 195.0 L 485.0 195.0 L 485.0 185.4 L 483.5 185.4 " fill="#000000"/>
<path class="legend" d="M 489.1 188.4 Q 489.1 186.4, 490.1 185.3 Q 491.2 184.1, 493.0 184.1 Q 494.8 184.1, 495.6 185.2 Q 496.4 186.3, 496.4 188.3 L 496.4 188.6 L 490.7 188.6 Q 490.7 190.0, 491.3 190.7 Q 492.0 191.4, 493.1 191.4 Q 493.8 191.4, 494.4 191.3 Q 494.9 191.1, 495.7 190.8 L 496.1 191.8 Q 495.3 192.3, 494.5 192.5 Q 493.8 192.6, 493.0 192.6 Q 491.2 192.6, 490.2 191.5 Q 489.1 190.4, 489.1 188.4 M 493.0 185.3 Q 492.0 185.3, 491.5 185.9 Q 490.9 186.4, 490.7 187.5 L 494.8 187.5 Q 494.7 186.4, 494.3 185.8 Q 493.8 185.3, 493.0 185.3 " fill="#000000"/>
<path class="legend" d="M 498.2 184.3 L 498.4 185.4 Q 499.3 184.1, 500.7 184.1 Q 501.1 184.1, 501.7 184.3 L 501.5 185.6 Q 500.8 185.5, 500.4 185.5 Q 499.8 185.5, 499.3 185.8 Q 498.9 186.0, 498.5 186.6 L 498.5 192.5 L 497.0 192.5 L 497.0 184.3 L 498.2 184.3 " fill="#000000"/>
<path class="legend" d="M 502.0 188.4 Q 502.0 186.4, 503.0 185.3 Q 504.0 184.1, 505.8 184.1 Q 507.6 184.1, 508.4 185.2 Q 509.3 186.3, 509.3 188.3 L 509.3 188.6 L 503.5 188.6 Q 503.6 190.0, 504.2 190.7 Q 504.8 191.4, 506.0 191.4 Q 506.6 191.4, 507.2 191.3 Q 507.8 191.1, 508.5 190.8 L 508.9 191.8 Q 508.1 192.3, 507.4 192.5 Q 506.7 192.6, 505.9 192.6 Q 504.0 192.6, 503.0 191.5 Q 502.0 190.4, 502.0 188.4 M 505.8 185.3 Q 504.9 185.3, 504.3 185.9 Q 503.8 186.4, 503.6 187.5 L 507.7 187.5 Q 507.6 186.4, 507.1 185.8 Q 506.7 185.3, 505.8 185.3 " fill="#000000"/>
<path class="legend" d="M 514.2 184.1 Q 515.5 184.1, 516.2 184.9 Q 516.9 185.6, 516.9 187.1 L 516.9 192.5 L 515.4 192.5 L 515.4 187.2 Q 515.4 186.2, 515.0 185.8 Q 514.6 185.3, 513.8 185.3 Q 513.0 185.3, 512.4 185.7 Q 511.8 186.0, 511.4 186.6 L 511.4 192.5 L 509.9 192.5 L 509.9 184.3 L 511.1 184.3 L 511.3 185.4 Q 512.4 184.1, 514.2 184.1 " fill="#000000"/>
<path class="legend" d="M 518.1 188.4 Q 518.1 186.4, 519.1 185.3 Q 520.1 184.1, 522.0 184.1 Q 523.9 184.1, 524.9 185.5 L 523.9 186.2 Q 523.5 185.8, 523.0 185.6 Q 522.6 185.3, 522.0 185.3 Q 520.9 185.3, 520.3 186.1 Q 519.6 186.9, 519.6 188.4 Q 519.6 189.9, 520.3 190.7 Q 520.9 191.4, 522.1 191.4 Q 522.8 191.4, 523.3 191.3 Q 523.7 191.1, 524.3 190.9 L 524.7 191.9 Q 523.5 192.6, 522.0 192.6 Q 520.1 192.6, 519.1 191.5 Q 518.1 190.4, 518.1 188.4 " fill="#000000"/>
<path class="legend" d="M 525.3 188.4 Q 525.3 186.4, 526.3 185.3 Q 527.3 184.1, 529.1 184.1 Q 530.9 184.1, 531.7 185.2 Q 532.5 186.3, 532.5 188.3 L 532.5 188.6 L 526.8 188.6 Q 526.8 190.0, 527.5 190.7 Q 528.1 191.4, 529.2 191.4 Q 529.9 191.4, 530.5 191.3 Q 531.1 191.1, 531.8 190.8 L 532.2 191.8 Q 531.4 192.3, 530.7 192.5 Q 529.9 192.6, 529.2 192.6 Q 527.3 192.6, 526.3 191.5 Q 525.3 190.4, 525.3 188.4 M 529.1 185.3 Q 528.2 185.3, 527.6 185.9 Q 527.0 186.4, 526.9 187.5 L 531.0 187.5 Q 530.8 186.4, 530.4 185.8 Q 530.0 185.3, 529.1 185.3 " fill="#000000"/>
</svg>