<svg xmlns="http://www.w3.org/2000/svg" xmlns:rdkit="http://www.rdkit.org/xml" xmlns:xlink="http://www.w3.org/1999/xlink" version="1.1" baseProfile="full" xml:space="preserve" width="600px" height="200px" viewBox="0 0 600 200">
<!-- END OF HEADER -->
<rect style="opacity:1.0;fill:#FFFFFF;stroke:none" width="600.0" height="200.0" x="0.0" y="0.0"> </rect>
<path class="bond-0 atom-0 atom-1" d="M 165.9,37.1 L 126.6,65.7" style="fill:none;fill-rule:evenodd;stroke:#000000;stroke-width:2.0px;stroke-linecap:butt;stroke-linejoin:miter;stroke-opacity:1"/>
<path class="bond-1 atom-1 atom-2" d="M 126.6,65.7 L 126.6,114.3" style="fill:none;fill-rule:evenodd;stroke:#000000;stroke-width:2.0px;stroke-linecap:butt;stroke-linejoin:miter;stroke-opacity:1"/>
<path class="bond-2 atom-2 atom-3" d="M 126.6,114.3 L 165.9,142.9" style="fill:none;fill-rule:evenodd;stroke:#000000;stroke-width:2.0px;stroke-linecap:butt;stroke-linejoin:miter;stroke-opacity:1"/>
<path class="bond-3 atom-2 atom-4" d="M 126.6,114.3 L 80.3,129.3" style="fill:none;fill-rule:evenodd;stroke:#000000;stroke-width:2.0px;stroke-linecap:butt;stroke-linejoin:miter;stroke-opacity:1"/>
<path class="bond-4 atom-4 atom-5" d="M 80.3,129.3 L 34.1,114.3" style="fill:none;fill-rule:evenodd;stroke:#000000;stroke-width:2.0px;stroke-linecap:butt;stroke-linejoin:miter;stroke-opacity:1"/>
<path class="bond-5 atom-5 atom-6" d="M 34.1,114.3 L 34.1,65.7" style="fill:none;fill-rule:evenodd;stroke:#000000;stroke-width:2.0px;stroke-linecap:butt;stroke-linejoin:miter;stroke-opacity:1"/>
<path class="bond-6 atom-6 atom-7" d="M 34.1,65.7 L 80.3,50.7" style="fill:none;fill-rule:evenodd;stroke:#000000;stroke-width:2.0px;stroke-linecap:butt;stroke-linejoin:miter;stroke-opacity:1"/>
<path class="bond-7 atom-7 atom-8" d="M 80.3,50.7 L 108.9,90.0" style="fill:none;fill-rule:evenodd;stroke:#000000;stroke-width:2.0px;stroke-linecap:butt;stroke-linejoin:miter;stroke-opacity:1"/>
<path class="bond-8 atom-7 atom-1" d="M 80.3,50.7 L 126.6,65.7" style="fill:none;fill-rule:evenodd;stroke:#000000;stroke-width:2.0px;stroke-linecap:butt;stroke-linejoin:miter;stroke-opacity:1"/>
<path class="bond-9 atom-8 atom-4" d="M 108.9,90.0 L 80.3,129.3" style="fill:none;fill-rule:evenodd;stroke:#000000;stroke-width:2.0px;stroke-linecap:butt;stroke-linejoin:miter;stroke-opacity:1"/>
<path class="legend" d="M 68.0 181.2 L 68.0 188.8 Q 68.0 190.1, 68.8 190.7 Q 69.5 191.3, 70.9 191.3 Q 72.3 191.3, 73.1 190.7 Q 73.8 190.2, 73.8 188.9 L 73.8 181.2 L 75.3 181.2 L 75.3 188.9 Q 75.3 190.7, 74.2 191.7 Q 73.1 192.6, 70.9 192.6 Q 68.7 192.6, 67.6 191.7 Q 66.5 190.7, 66.5 188.9 L 66.5 181.2 L 68.0 181.2 " fill="#000000"/>
<path class="legend" d="M 80.9 184.1 Q 82.2 184.1, 82.9 184.9 Q 83.6 185.6, 83.6 187.1 L 83.6 192.5 L 82.1 192.5 L 82.1 187.2 Q 82.1 186.2, 81.7 185.8 Q 81.3 185.3, 80.5 185.3 Q 79.7 185.3, 79.1 185.7 Q 78.5 186.0, 78.1 186.6 L 78.1 192.5 L 76.6 192.5 L 76.6 184.3 L 77.8 184.3 L 78.0 185.4 Q 79.1 184.1, 80.9 184.1 " fill="#000000"/>
<path class="legend" d="M 92.3 180.4 L 92.3 192.5 L 91.1 192.5 L 90.9 191.5 Q 90.0 192.6, 88.4 192.6 Q 86.7 192.6, 85.8 191.6 Q 84.8 190.5, 84.8 188.5 Q 84.8 186.5, 85.9 185.3 Q 87.1 184.1, 89.0 184.1 Q 89.9 184.1, 90.8 184.4 L 90.8 180.4 L 92.3 180.4 M 88.5 191.4 Q 89.4 191.4, 90.0 191.0 Q 90.6 190.5, 90.8 189.7 L 90.8 185.6 Q 90.0 185.3, 89.1 185.3 Q 87.8 185.3, 87.1 186.2 Q 86.4 187.0, 86.4 188.5 Q 86.4 189.9, 86.9 190.7 Q 87.5 191.4, 88.5 191.4 " fill="#000000"/>
<path class="legend" d="M 93.6 188.4 Q 93.6 186.4, 94.6 185.3 Q 95.6 184.1, 97.4 184.1 Q 99.2 184.1, 100.0 185.2 Q 100.8 186.3, 100.8 188.3 L 100.8 188.6 L 95.1 188.6 Q 95.1 190.0, 95.8 190.7 Q 96.4 191.4, 97.6 191.4 Q 98.2 191.4, 98.8 191.3 Q 99.4 191.1, 100.1 190.8 L 100.5 191.8 Q 99.7 192.3, 99.0 192.5 Q 98.2 192.6, 97.5 192.6 Q 95.6 192.6, 94.6 191.5 Q 93.6 190.4, 93.6 188.4 M 97.4 185.3 Q 96.5 185.3, 95.9 185.9 Q 95.3 186.4, 95.2 187.5 L 99.3 187.5 Q 99.2 186.4, 98.7 185.8 Q 98.3 185.3, 97.4 185.3 " fill="#000000"/>
<path class="legend" d="M 101.5 185.4 L 101.5 184.3 L 102.9 184.3 L 102.9 183.1 Q 102.9 181.7, 103.6 181.0 Q 104.4 180.3, 105.5 180.3 Q 106.1 180.3, 106.5 180.5 Q 107.0 180.6, 107.5 180.8 L 107.0 181.8 Q 106.3 181.5, 105.7 181.5 Q 105.1 181.5, 104.7 181.9 Q 104.4 182.3, 104.4 183.0 L 104.4 184.3 L 106.9 184.3 L 106.9 185.4 L 104.4 185.4 L 104.4 195.0 L 102.9 195.0 L 102.9 185.4 L 101.5 185.4 " fill="#000000"/>
<path class="legend" d="M 107.1 181.2 L 108.5 181.2 L 108.5 182.6 L 107.1 182.6 L 107.1 181.2 M 107.1 184.3 L 108.5 184.3 L 108.5 192.5 L 107.1 192.5 L 107.1 184.3 " fill="#000000"/>
<path class="legend" d="M 114.2 184.1 Q 115.5 184.1, 116.2 184.9 Q 116.9 185.6, 116.9 187.1 L 116.9 192.5 L 115.4 192.5 L 115.4 187.2 Q 115.4 186.2, 115.0 185.8 Q 114.7 185.3, 113.8 185.3 Q 113.1 185.3, 112.4 185.7 Q 111.8 186.0, 111.4 186.6 L 111.4 192.5 L 109.9 192.5 L 109.9 184.3 L 111.2 184.3 L 111.3 185.4 Q 112.4 184.1, 114.2 184.1 " fill="#000000"/>
<path class="legend" d="M 118.1 188.4 Q 118.1 186.4, 119.2 185.3 Q 120.2 184.1, 122.0 184.1 Q 123.8 184.1, 124.6 185.2 Q 125.4 186.3, 125.4 188.3 L 125.4 188.6 L 119.7 188.6 Q 119.7 190.0, 120.3 190.7 Q 121.0 191.4, 122.1 191.4 Q 122.8 191.4, 123.4 191.3 Q 124.0 191.1, 124.7 190.8 L 125.1 191.8 Q 124.3 192.3, 123.6 192.5 Q 122.8 192.6, 122.0 192.6 Q 120.2 192.6, 119.2 191.5 Q 118.1 190.4, 118.1 188.4 M 122.0 185.3 Q 121.1 185.3, 120.5 185.9 Q 119.9 186.4, 119.7 187.5 L 123.8 187.5 Q 123.7 186.4, 123.3 185.8 Q 122.8 185.3, 122.0 185.3 " fill="#000000"/>
<path class="legend" d="M 133.5 180.4 L 133.5 192.5 L 132.3 192.5 L 132.1 191.5 Q 131.2 192.6, 129.6 192.6 Q 127.9 192.6, 127.0 191.6 Q 126.0 190.5, 126.0 188.5 Q 126.0 186.5, 127.2 185.3 Q 128.3 184.1, 130.3 184.1 Q 131.1 184.1, 132.0 184.4 L 132.0 180.4 L 133.5 180.4 M 129.7 191.4 Q 130.6 191.4, 131.2 191.0 Q 131.8 190.5, 132.0 189.7 L 132.0 185.6 Q 131.2 185.3, 130.3 185.3 Q 129.0 185.3, 128.3 186.2 Q 127.6 187.0, 127.6 188.5 Q 127.6 189.9, 128.1 190.7 Q 128.7 191.4, 129.7 191.4 " fill="#000000"/>
<path class="bond-0 atom-1 atom-0" d="M 271.6,57.8 L 270.3,58.8" style="fill:none;fill-rule:evenodd;stroke:#000000;stroke-width:1.0px;stroke-linecap:butt;stroke-linejoin:miter;stroke-opacity:1"/>
<path class="bond-0 atom-1 atom-0" d="M 267.5,50.8 L 264.9,52.7" style="fill:none;fill-rule:evenodd;stroke:#000000;stroke-width:1.0px;stroke-linecap:butt;stroke-linejoin:miter;stroke-opacity:1"/>
<path class="bond-0 atom-1 atom-0" d="M 263.4,43.8 L 259.5,46.6" style="fill:none;fill-rule:evenodd;stroke:#000000;stroke-width:1.0px;stroke-linecap:butt;stroke-linejoin:miter;stroke-opacity:1"/>
<path class="bond-0 atom-1 atom-0" d="M 259.3,36.8 L 254.0,40.6" style="fill:none;fill-rule:evenodd;stroke:#000000;stroke-width:1.0px;stroke-linecap:butt;stroke-linejoin:miter;stroke-opacity:1"/>
<path class="bond-0 atom-1 atom-0" d="M 255.2,29.7 L 248.6,34.5" style="fill:none;fill-rule:evenodd;stroke:#000000;stroke-width:1.0px;stroke-linecap:butt;stroke-linejoin:miter;stroke-opacity:1"/>
<path class="bond-0 atom-1 atom-0" d="M 251.1,22.7 L 243.2,28.4" style="fill:none;fill-rule:evenodd;stroke:#000000;stroke-width:1.0px;stroke-linecap:butt;stroke-linejoin:miter;stroke-opacity:1"/>
<path class="bond-1 atom-1 atom-2" d="M 275.7,64.9 L 324.3,64.9" style="fill:none;fill-rule:evenodd;stroke:#000000;stroke-width:2.0px;stroke-linecap:butt;stroke-linejoin:miter;stroke-opacity:1"/>
<path class="bond-2 atom-2 atom-3" d="M 329.7,58.8 L 328.4,57.8" style="fill:none;fill-rule:evenodd;stroke:#000000;stroke-width:1.0px;stroke-linecap:butt;stroke-linejoin:miter;stroke-opacity:1"/>
<path class="bond-2 atom-2 atom-3" d="M 335.1,52.7 L 332.5,50.8" style="fill:none;fill-rule:evenodd;stroke:#000000;stroke-width:1.0px;stroke-linecap:butt;stroke-linejoin:miter;stroke-opacity:1"/>
<path class="bond-2 atom-2 atom-3" d="M 340.5,46.6 L 336.6,43.8" style="fill:none;fill-rule:evenodd;stroke:#000000;stroke-width:1.0px;stroke-linecap:butt;stroke-linejoin:miter;stroke-opacity:1"/>
<path class="bond-2 atom-2 atom-3" d="M 346.0,40.6 L 340.7,36.8" style="fill:none;fill-rule:evenodd;stroke:#000000;stroke-width:1.0px;stroke-linecap:butt;stroke-linejoin:miter;stroke-opacity:1"/>
<path class="bond-2 atom-2 atom-3" d="M 351.4,34.5 L 344.8,29.7" style="fill:none;fill-rule:evenodd;stroke:#000000;stroke-width:1.0px;stroke-linecap:butt;stroke-linejoin:miter;stroke-opacity:1"/>
<path class="bond-2 atom-2 atom-3" d="M 356.8,28.4 L 348.9,22.7" style="fill:none;fill-rule:evenodd;stroke:#000000;stroke-width:1.0px;stroke-linecap:butt;stroke-linejoin:miter;stroke-opacity:1"/>
<path class="bond-3 atom-2 atom-4" d="M 324.3,64.9 L 339.3,111.1" style="fill:none;fill-rule:evenodd;stroke:#000000;stroke-width:2.0px;stroke-linecap:butt;stroke-linejoin:miter;stroke-opacity:1"/>
<path class="bond-4 atom-4 atom-5" d="M 339.3,111.1 L 324.3,157.3" style="fill:none;fill-rule:evenodd;stroke:#000000;stroke-width:2.0px;stroke-linecap:butt;stroke-linejoin:miter;stroke-opacity:1"/>
<path class="bond-5 atom-5 atom-6" d="M 324.3,157.3 L 275.7,157.3" style="fill:none;fill-rule:evenodd;stroke:#000000;stroke-width:2.0px;stroke-linecap:butt;stroke-linejoin:miter;stroke-opacity:1"/>
<path class="bond-6 atom-6 atom-7" d="M 275.7,157.3 L 260.7,111.1" style="fill:none;fill-rule:evenodd;stroke:#000000;stroke-width:2.0px;stroke-linecap:butt;stroke-linejoin:miter;stroke-opacity:1"/>
<path class="bond-7 atom-7 atom-8" d="M 260.7,111.1 L 300.0,82.5" style="fill:none;fill-rule:evenodd;stroke:#000000;stroke-width:2.0px;stroke-linecap:butt;stroke-linejoin:miter;stroke-opacity:1"/>
<path class="bond-8 atom-7 atom-1" d="M 260.7,111.1 L 275.7,64.9" style="fill:none;fill-rule:evenodd;stroke:#000000;stroke-width:2.0px;stroke-linecap:butt;stroke-linejoin:miter;stroke-opacity:1"/>
<path class="bond-9 atom-8 atom-4" d="M 300.0,82.5 L 339.3,111.1" style="fill:none;fill-rule:evenodd;stroke:#000000;stroke-width:2.0px;stroke-linecap:butt;stroke-linejoin:miter;stroke-opacity:1"/>
<path class="bond-10 atom-4 atom-9" d="M 345.8,109.8 L 345.3,108.3" style="fill:none;fill-rule:evenodd;stroke:#000000;stroke-width:1.0px;stroke-linecap:butt;stroke-linejoin:miter;stroke-opacity:1"/>
<path class="bond-10 atom-4 atom-9" d="M 352.4,108.5 L 351.4,105.5" style="fill:none;fill-rule:evenodd;stroke:#000000;stroke-width:1.0px;stroke-linecap:butt;stroke-linejoin:miter;stroke-opacity:1"/>
<path class="bond-10 atom-4 atom-9" d="M 358.9,107.3 L 357.4,102.7" style="fill:none;fill-rule:evenodd;stroke:#000000;stroke-width:1.0px;stroke-linecap:butt;stroke-linejoin:miter;stroke-opacity:1"/>
<path class="bond-10 atom-4 atom-9" d="M 365.4,106.0 L 363.4,99.9" style="fill:none;fill-rule:evenodd;stroke:#000000;stroke-width:1.0px;stroke-linecap:butt;stroke-linejoin:miter;stroke-opacity:1"/>
<path class="bond-10 atom-4 atom-9" d="M 371.9,104.7 L 369.4,97.0" style="fill:none;fill-rule:evenodd;stroke:#000000;stroke-width:1.0px;stroke-linecap:butt;stroke-linejoin:miter;stroke-opacity:1"/>
<path class="bond-10 atom-4 atom-9" d="M 378.4,103.5 L 375.4,94.2" style="fill:none;fill-rule:evenodd;stroke:#000000;stroke-width:1.0px;stroke-linecap:butt;stroke-linejoin:miter;stroke-opacity:1"/>
<path class="bond-11 atom-7 atom-10" d="M 254.7,108.3 L 254.2,109.8" style="fill:none;fill-rule:evenodd;stroke:#000000;stroke-width:1.0px;stroke-linecap:butt;stroke-linejoin:miter;stroke-opacity:1"/>
<path class="bond-11 atom-7 atom-10" d="M 248.6,105.5 L 247.6,108.5" style="fill:none;fill-rule:evenodd;stroke:#000000;stroke-width:1.0px;stroke-linecap:butt;stroke-linejoin:miter;stroke-opacity:1"/>
<path class="bond-11 atom-7 atom-10" d="M 242.6,102.7 L 241.1,107.3" style="fill:none;fill-rule:evenodd;stroke:#000000;stroke-width:1.0px;stroke-linecap:butt;stroke-linejoin:miter;stroke-opacity:1"/>
<path class="bond-11 atom-7 atom-10" d="M 236.6,99.9 L 234.6,106.0" style="fill:none;fill-rule:evenodd;stroke:#000000;stroke-width:1.0px;stroke-linecap:butt;stroke-linejoin:miter;stroke-opacity:1"/>
<path class="bond-11 atom-7 atom-10" d="M 230.6,97.0 L 228.1,104.7" style="fill:none;fill-rule:evenodd;stroke:#000000;stroke-width:1.0px;stroke-linecap:butt;stroke-linejoin:miter;stroke-opacity:1"/>
<path class="bond-11 atom-7 atom-10" d="M 224.6,94.2 L 221.6,103.5" style="fill:none;fill-rule:evenodd;stroke:#000000;stroke-width:1.0px;stroke-linecap:butt;stroke-linejoin:miter;stroke-opacity:1"/>
<path class="atom-9" d="M 380.1 89.2 L 382.0 89.2 L 382.0 95.0 L 389.0 95.0 L 389.0 89.2 L 390.9 89.2 L 390.9 102.9 L 389.0 102.9 L 389.0 96.6 L 382.0 96.6 L 382.0 102.9 L 380.1 102.9 L 380.1 89.2 " fill="#000000"/>
<path class="atom-10" d="M 209.1 89.2 L 211.0 89.2 L 211.0 95.0 L 218.0 95.0 L 218.0 89.2 L 219.9 89.2 L 219.9 102.9 L 218.0 102.9 L 218.0 96.6 L 211.0 96.6 L 211.0 102.9 L 209.1 102.9 L 209.1 89.2 " fill="#000000"/>
<path class="note" d="M 278.4 51.5 Q 278.4 50.1, 278.8 49.0 Q 279.2 47.8, 280.0 46.6 L 280.5 46.9 Q 279.9 48.1, 279.5 49.1 Q 279.2 50.2, 279.2 51.5 Q 279.2 52.8, 279.5 53.9 Q 279.9 54.9, 280.5 56.1 L 280.0 56.4 Q 279.2 55.2, 278.8 54.1 Q 278.4 52.9, 278.4 51.5 " fill="#000000"/>
<path class="note" d="M 281.0 53.2 Q 281.1 53.2, 281.4 53.4 Q 281.7 53.5, 282.1 53.6 Q 282.4 53.7, 282.8 53.7 Q 283.4 53.7, 283.8 53.4 Q 284.2 53.1, 284.2 52.5 Q 284.2 52.1, 284.0 51.9 Q 283.8 51.7, 283.5 51.5 Q 283.2 51.4, 282.7 51.3 Q 282.1 51.1, 281.8 50.9 Q 281.4 50.7, 281.1 50.4 Q 280.9 50.0, 280.9 49.4 Q 280.9 48.5, 281.5 48.0 Q 282.1 47.4, 283.2 47.4 Q 284.0 47.4, 284.9 47.8 L 284.7 48.6 Q 283.9 48.2, 283.3 48.2 Q 282.6 48.2, 282.2 48.5 Q 281.9 48.8, 281.9 49.2 Q 281.9 49.6, 282.0 49.8 Q 282.2 50.1, 282.5 50.2 Q 282.8 50.3, 283.3 50.5 Q 283.9 50.7, 284.3 50.8 Q 284.6 51.0, 284.9 51.4 Q 285.2 51.8, 285.2 52.5 Q 285.2 53.5, 284.5 54.0 Q 283.9 54.5, 282.8 54.5 Q 282.2 54.5, 281.7 54.3 Q 281.3 54.2, 280.7 54.0 L 281.0 53.2 " fill="#000000"/>
<path class="note" d="M 287.8 51.5 Q 287.8 52.9, 287.3 54.1 Q 286.9 55.2, 286.2 56.4 L 285.6 56.1 Q 286.2 54.9, 286.6 53.9 Q 286.9 52.8, 286.9 51.5 Q 286.9 50.2, 286.6 49.1 Q 286.2 48.1, 285.6 46.9 L 286.2 46.6 Q 286.9 47.8, 287.3 49.0 Q 287.8 50.1, 287.8 51.5 " fill="#000000"/>
<path class="note" d="M 312.2 51.5 Q 312.2 50.1, 312.6 49.0 Q 313.0 47.8, 313.8 46.6 L 314.3 46.9 Q 313.7 48.1, 313.4 49.1 Q 313.1 50.2, 313.1 51.5 Q 313.1 52.8, 313.4 53.9 Q 313.7 54.9, 314.3 56.1 L 313.8 56.4 Q 313.0 55.2, 312.6 54.1 Q 312.2 52.9, 312.2 51.5 " fill="#000000"/>
<path class="note" d="M 318.3 54.3 L 316.6 51.5 L 316.6 51.5 L 315.5 51.5 L 315.5 54.3 L 314.6 54.3 L 314.6 47.4 L 316.6 47.4 Q 317.8 47.4, 318.4 47.9 Q 319.0 48.5, 319.0 49.4 Q 319.0 50.2, 318.6 50.7 Q 318.3 51.1, 317.6 51.3 L 319.3 54.3 L 318.3 54.3 M 315.5 50.7 L 316.6 50.7 Q 317.3 50.7, 317.6 50.4 Q 318.0 50.0, 318.0 49.4 Q 318.0 48.8, 317.6 48.5 Q 317.3 48.2, 316.6 48.2 L 315.5 48.2 L 315.5 50.7 " fill="#000000"/>
<path class="note" d="M 321.7 51.5 Q 321.7 52.9, 321.3 54.1 Q 320.9 55.2, 320.1 56.4 L 319.5 56.1 Q 320.2 54.9, 320.5 53.9 Q 320.8 52.8, 320.8 51.5 Q 320.8 50.2, 320.5 49.1 Q 320.2 48.1, 319.5 46.9 L 320.1 46.6 Q 320.9 47.8, 321.3 49.0 Q 321.7 50.1, 321.7 51.5 " fill="#000000"/>
<path class="note" d="M 318.4 112.2 Q 318.4 110.8, 318.8 109.6 Q 319.2 108.5, 320.0 107.2 L 320.6 107.6 Q 319.9 108.7, 319.6 109.8 Q 319.3 110.8, 319.3 112.2 Q 319.3 113.5, 319.6 114.5 Q 319.9 115.5, 320.6 116.7 L 320.0 117.1 Q 319.2 115.9, 318.8 114.7 Q 318.4 113.6, 318.4 112.2 " fill="#000000"/>
<path class="note" d="M 321.1 113.9 Q 321.1 113.9, 321.5 114.0 Q 321.8 114.2, 322.1 114.3 Q 322.5 114.3, 322.8 114.3 Q 323.5 114.3, 323.9 114.0 Q 324.3 113.7, 324.3 113.1 Q 324.3 112.8, 324.1 112.5 Q 323.9 112.3, 323.6 112.2 Q 323.3 112.0, 322.8 111.9 Q 322.2 111.7, 321.8 111.5 Q 321.5 111.4, 321.2 111.0 Q 320.9 110.6, 320.9 110.0 Q 320.9 109.1, 321.5 108.6 Q 322.1 108.1, 323.3 108.1 Q 324.1 108.1, 325.0 108.5 L 324.8 109.2 Q 323.9 108.9, 323.3 108.9 Q 322.6 108.9, 322.3 109.1 Q 321.9 109.4, 321.9 109.9 Q 321.9 110.3, 322.1 110.5 Q 322.3 110.7, 322.6 110.8 Q 322.9 111.0, 323.3 111.1 Q 323.9 111.3, 324.3 111.5 Q 324.7 111.7, 324.9 112.1 Q 325.2 112.5, 325.2 113.1 Q 325.2 114.1, 324.6 114.6 Q 323.9 115.1, 322.9 115.1 Q 322.3 115.1, 321.8 115.0 Q 321.3 114.9, 320.8 114.6 L 321.1 113.9 " fill="#000000"/>
<path class="note" d="M 327.8 112.2 Q 327.8 113.6, 327.4 114.7 Q 327.0 115.9, 326.2 117.1 L 325.7 116.7 Q 326.3 115.5, 326.6 114.5 Q 326.9 113.5, 326.9 112.2 Q 326.9 110.8, 326.6 109.8 Q 326.3 108.7, 325.7 107.6 L 326.2 107.2 Q 327.0 108.5, 327.4 109.6 Q 327.8 110.8, 327.8 112.2 " fill="#000000"/>
<path class="note" d="M 249.9 117.6 Q 249.9 116.2, 250.3 115.0 Q 250.7 113.9, 251.5 112.7 L 252.1 113.0 Q 251.4 114.2, 251.1 115.2 Q 250.8 116.3, 250.8 117.6 Q 250.8 118.9, 251.1 119.9 Q 251.4 121.0, 252.1 122.2 L 251.5 122.5 Q 250.7 121.3, 250.3 120.1 Q 249.9 119.0, 249.9 117.6 " fill="#000000"/>
<path class="note" d="M 256.0 120.4 L 254.4 117.5 L 254.3 117.5 L 253.2 117.5 L 253.2 120.4 L 252.3 120.4 L 252.3 113.5 L 254.3 113.5 Q 255.5 113.5, 256.1 114.0 Q 256.7 114.5, 256.7 115.5 Q 256.7 116.2, 256.3 116.7 Q 256.0 117.2, 255.3 117.4 L 257.0 120.4 L 256.0 120.4 M 253.2 116.7 L 254.3 116.7 Q 255.0 116.7, 255.4 116.4 Q 255.7 116.1, 255.7 115.5 Q 255.7 114.9, 255.4 114.6 Q 255.0 114.2, 254.3 114.2 L 253.2 114.2 L 253.2 116.7 " fill="#000000"/>
<path class="note" d="M 259.4 117.6 Q 259.4 119.0, 259.0 120.1 Q 258.6 121.3, 257.8 122.5 L 257.3 122.2 Q 257.9 121.0, 258.2 119.9 Q 258.5 118.9, 258.5 117.6 Q 258.5 116.3, 258.2 115.2 Q 257.9 114.2, 257.3 113.0 L 257.8 112.7 Q 258.6 113.9, 259.0 115.0 Q 259.4 116.2, 259.4 117.6 " fill="#000000"/>
<path class="legend" d="M 278.9 181.2 Q 281.4 181.2, 282.8 182.7 Q 284.1 184.1, 284.1 186.8 Q 284.1 189.5, 282.7 191.0 Q 281.4 192.5, 278.9 192.5 L 275.2 192.5 L 275.2 181.2 L 278.9 181.2 M 278.9 191.2 Q 280.6 191.2, 281.6 190.1 Q 282.5 189.0, 282.5 186.8 Q 282.5 184.6, 281.6 183.5 Q 280.6 182.5, 278.9 182.5 L 276.8 182.5 L 276.8 191.2 L 278.9 191.2 " fill="#000000"/>
<path class="legend" d="M 284.8 188.4 Q 284.8 186.4, 285.8 185.3 Q 286.8 184.1, 288.7 184.1 Q 290.5 184.1, 291.3 185.2 Q 292.1 186.3, 292.1 188.3 L 292.1 188.6 L 286.4 188.6 Q 286.4 190.0, 287.0 190.7 Q 287.6 191.4, 288.8 191.4 Q 289.4 191.4, 290.0 191.3 Q 290.6 191.1, 291.4 190.8 L 291.8 191.8 Q 291.0 192.3, 290.2 192.5 Q 289.5 192.6, 288.7 192.6 Q 286.9 192.6, 285.8 191.5 Q 284.8 190.4, 284.8 188.4 M 288.7 185.3 Q 287.7 185.3, 287.2 185.9 Q 286.6 186.4, 286.4 187.5 L 290.5 187.5 Q 290.4 186.4, 290.0 185.8 Q 289.5 185.3, 288.7 185.3 " fill="#000000"/>
<path class="legend" d="M 292.7 185.4 L 292.7 184.3 L 294.2 184.3 L 294.2 183.1 Q 294.2 181.7, 294.9 181.0 Q 295.6 180.3, 296.8 180.3 Q 297.3 180.3, 297.8 180.5 Q 298.2 180.6, 298.7 180.8 L 298.3 181.8 Q 297.6 181.5, 296.9 181.5 Q 296.3 181.5, 296.0 181.9 Q 295.7 182.3, 295.7 183.0 L 295.7 184.3 L 298.2 184.3 L 298.2 185.4 L 295.7 185.4 L 295.7 195.0 L 294.2 195.0 L 294.2 185.4 L 292.7 185.4 " fill="#000000"/>
<path class="legend" d="M 298.3 181.2 L 299.8 181.2 L 299.8 182.6 L 298.3 182.6 L 298.3 181.2 M 298.3 184.3 L 299.8 184.3 L 299.8 192.5 L 298.3 192.5 L 298.3 184.3 " fill="#000000"/>
<path class="legend" d="M 305.5 184.1 Q 306.8 184.1, 307.5 184.9 Q 308.2 185.6, 308.2 187.1 L 308.2 192.5 L 306.7 192.5 L 306.7 187.2 Q 306.7 186.2, 306.3 185.8 Q 305.9 185.3, 305.1 185.3 Q 304.3 185.3, 303.7 185.7 Q 303.1 186.0, 302.7 186.6 L 302.7 192.5 L 301.2 192.5 L 301.2 184.3 L 302.4 184.3 L 302.6 185.4 Q 303.7 184.1, 305.5 184.1 " fill="#000000"/>
<path class="legend" d="M 309.4 188.4 Q 309.4 186.4, 310.4 185.3 Q 311.4 184.1, 313.3 184.1 Q 315.1 184.1, 315.9 185.2 Q 316.7 186.3, 316.7 188.3 L 316.7 188.6 L 310.9 188.6 Q 311.0 190.0, 311.6 190.7 Q 312.2 191.4, 313.4 191.4 Q 314.0 191.4, 314.6 191.3 Q 315.2 191.1, 315.9 190.8 L 316.4 191.8 Q 315.5 192.3, 314.8 192.5 Q 314.1 192.6, 313.3 192.6 Q 311.4 192.6, 310.4 191.5 Q 309.4 190.4, 309.4 188.4 M 313.3 185.3 Q 312.3 185.3, 311.7 185.9 Q 311.2 186.4, 311.0 187.5 L 315.1 187.5 Q 315.0 186.4, 314.5 185.8 Q 314.1 185.3, 313.3 185.3 " fill="#000000"/>
<path class="legend" d="M 324.8 180.4 L 324.8 192.5 L 323.5 192.5 L 323.3 191.5 Q 322.4 192.6, 320.9 192.6 Q 319.2 192.6, 318.2 191.6 Q 317.3 190.5, 317.3 188.5 Q 317.3 186.5, 318.4 185.3 Q 319.5 184.1, 321.5 184.1 Q 322.4 184.1, 323.3 184.4 L 323.3 180.4 L 324.8 180.4 M 321.0 191.4 Q 321.8 191.4, 322.4 191.0 Q 323.0 190.5, 323.3 189.7 L 323.3 185.6 Q 322.4 185.3, 321.5 185.3 Q 320.3 185.3, 319.5 186.2 Q 318.8 187.0, 318.8 188.5 Q 318.8 189.9, 319.4 190.7 Q 320.0 191.4, 321.0 191.4 " fill="#000000"/>
<path class="bond-0 atom-1 atom-0" d="M 471.9,60.3 L 470.6,61.3" style="fill:none;fill-rule:evenodd;stroke:#000000;stroke-width:1.0px;stroke-linecap:butt;stroke-linejoin:miter;stroke-opacity:1"/>
<path class="bond-0 atom-1 atom-0" d="M 468.1,53.7 L 465.5,55.6" style="fill:none;fill-rule:evenodd;stroke:#000000;stroke-width:1.0px;stroke-linecap:butt;stroke-linejoin:miter;stroke-opacity:1"/>
<path class="bond-0 atom-1 atom-0" d="M 464.3,47.1 L 460.4,50.0" style="fill:none;fill-rule:evenodd;stroke:#000000;stroke-width:1.0px;stroke-linecap:butt;stroke-linejoin:miter;stroke-opacity:1"/>
<path class="bond-0 atom-1 atom-0" d="M 460.5,40.5 L 455.3,44.3" style="fill:none;fill-rule:evenodd;stroke:#191919;stroke-width:1.0px;stroke-linecap:butt;stroke-linejoin:miter;stroke-opacity:1"/>
<path class="bond-0 atom-1 atom-0" d="M 456.7,33.9 L 450.1,38.7" style="fill:none;fill-rule:evenodd;stroke:#191919;stroke-width:1.0px;stroke-linecap:butt;stroke-linejoin:miter;stroke-opacity:1"/>
<path class="bond-0 atom-1 atom-0" d="M 452.9,27.3 L 445.0,33.0" style="fill:none;fill-rule:evenodd;stroke:#191919;stroke-width:1.0px;stroke-linecap:butt;stroke-linejoin:miter;stroke-opacity:1"/>
<path class="bond-1 atom-1 atom-2" d="M 475.7,66.9 L 524.3,66.9" style="fill:none;fill-rule:evenodd;stroke:#000000;stroke-width:2.0px;stroke-linecap:butt;stroke-linejoin:miter;stroke-opacity:1"/>
<path class="bond-2 atom-2 atom-3" d="M 529.4,61.3 L 528.1,60.3" style="fill:none;fill-rule:evenodd;stroke:#000000;stroke-width:1.0px;stroke-linecap:butt;stroke-linejoin:miter;stroke-opacity:1"/>
<path class="bond-2 atom-2 atom-3" d="M 534.5,55.6 L 531.9,53.7" style="fill:none;fill-rule:evenodd;stroke:#000000;stroke-width:1.0px;stroke-linecap:butt;stroke-linejoin:miter;stroke-opacity:1"/>
<path class="bond-2 atom-2 atom-3" d="M 539.6,50.0 L 535.7,47.1" style="fill:none;fill-rule:evenodd;stroke:#000000;stroke-width:1.0px;stroke-linecap:butt;stroke-linejoin:miter;stroke-opacity:1"/>
<path class="bond-2 atom-2 atom-3" d="M 544.7,44.3 L 539.5,40.5" style="fill:none;fill-rule:evenodd;stroke:#191919;stroke-width:1.0px;stroke-linecap:butt;stroke-linejoin:miter;stroke-opacity:1"/>
<path class="bond-2 atom-2 atom-3" d="M 549.9,38.7 L 543.3,33.9" style="fill:none;fill-rule:evenodd;stroke:#191919;stroke-width:1.0px;stroke-linecap:butt;stroke-linejoin:miter;stroke-opacity:1"/>
<path class="bond-2 atom-2 atom-3" d="M 555.0,33.0 L 547.1,27.3" style="fill:none;fill-rule:evenodd;stroke:#191919;stroke-width:1.0px;stroke-linecap:butt;stroke-linejoin:miter;stroke-opacity:1"/>
<path class="bond-3 atom-2 atom-4" d="M 524.3,66.9 L 539.3,113.2" style="fill:none;fill-rule:evenodd;stroke:#000000;stroke-width:2.0px;stroke-linecap:butt;stroke-linejoin:miter;stroke-opacity:1"/>
<path class="bond-4 atom-4 atom-5" d="M 539.3,113.2 L 524.3,159.4" style="fill:none;fill-rule:evenodd;stroke:#000000;stroke-width:2.0px;stroke-linecap:butt;stroke-linejoin:miter;stroke-opacity:1"/>
<path class="bond-5 atom-5 atom-6" d="M 524.3,159.4 L 475.7,159.4" style="fill:none;fill-rule:evenodd;stroke:#000000;stroke-width:2.0px;stroke-linecap:butt;stroke-linejoin:miter;stroke-opacity:1"/>
<path class="bond-6 atom-6 atom-7" d="M 475.7,159.4 L 460.7,113.2" style="fill:none;fill-rule:evenodd;stroke:#000000;stroke-width:2.0px;stroke-linecap:butt;stroke-linejoin:miter;stroke-opacity:1"/>
<path class="bond-7 atom-7 atom-8" d="M 460.7,113.2 L 500.0,84.6" style="fill:none;fill-rule:evenodd;stroke:#000000;stroke-width:2.0px;stroke-linecap:butt;stroke-linejoin:miter;stroke-opacity:1"/>
<path class="bond-8 atom-7 atom-1" d="M 460.7,113.2 L 468.2,90.0" style="fill:none;fill-rule:evenodd;stroke:#7F7F7F;stroke-width:2.0px;stroke-linecap:butt;stroke-linejoin:miter;stroke-opacity:1"/>
<path class="bond-8 atom-7 atom-1" d="M 468.2,90.0 L 475.7,66.9" style="fill:none;fill-rule:evenodd;stroke:#7F7F7F;stroke-width:2.0px;stroke-linecap:butt;stroke-linejoin:miter;stroke-opacity:1"/>
<path class="bond-8 atom-7 atom-1" d="M 477.4,93.1 L 482.7,76.9" style="fill:none;fill-rule:evenodd;stroke:#7F7F7F;stroke-width:2.0px;stroke-linecap:butt;stroke-linejoin:miter;stroke-opacity:1;stroke-dasharray:1,1.33333"/>
<path class="bond-9 atom-8 atom-4" d="M 500.0,84.6 L 519.7,98.9" style="fill:none;fill-rule:evenodd;stroke:#7F7F7F;stroke-width:2.0px;stroke-linecap:butt;stroke-linejoin:miter;stroke-opacity:1"/>
<path class="bond-9 atom-8 atom-4" d="M 519.7,98.9 L 539.3,113.2" style="fill:none;fill-rule:evenodd;stroke:#7F7F7F;stroke-width:2.0px;stroke-linecap:butt;stroke-linejoin:miter;stroke-opacity:1"/>
<path class="bond-9 atom-8 atom-4" d="M 513.9,106.7 L 527.7,116.7" style="fill:none;fill-rule:evenodd;stroke:#7F7F7F;stroke-width:2.0px;stroke-linecap:butt;stroke-linejoin:miter;stroke-opacity:1;stroke-dasharray:1,1.33333"/>
<path class="bond-10 atom-4 atom-9" d="M 545.8,111.9 L 545.3,110.3" style="fill:none;fill-rule:evenodd;stroke:#000000;stroke-width:1.0px;stroke-linecap:butt;stroke-linejoin:miter;stroke-opacity:1"/>
<path class="bond-10 atom-4 atom-9" d="M 552.4,110.6 L 551.4,107.5" style="fill:none;fill-rule:evenodd;stroke:#000000;stroke-width:1.0px;stroke-linecap:butt;stroke-linejoin:miter;stroke-opacity:1"/>
<path class="bond-10 atom-4 atom-9" d="M 558.9,109.4 L 557.4,104.7" style="fill:none;fill-rule:evenodd;stroke:#000000;stroke-width:1.0px;stroke-linecap:butt;stroke-linejoin:miter;stroke-opacity:1"/>
<path class="bond-10 atom-4 atom-9" d="M 565.4,108.1 L 563.4,101.9" style="fill:none;fill-rule:evenodd;stroke:#000000;stroke-width:1.0px;stroke-linecap:butt;stroke-linejoin:miter;stroke-opacity:1"/>
<path class="bond-10 atom-4 atom-9" d="M 571.9,106.8 L 569.4,99.1" style="fill:none;fill-rule:evenodd;stroke:#000000;stroke-width:1.0px;stroke-linecap:butt;stroke-linejoin:miter;stroke-opacity:1"/>
<path class="bond-10 atom-4 atom-9" d="M 578.4,105.6 L 575.4,96.3" style="fill:none;fill-rule:evenodd;stroke:#000000;stroke-width:1.0px;stroke-linecap:butt;stroke-linejoin:miter;stroke-opacity:1"/>
<path class="bond-11 atom-7 atom-10" d="M 454.7,110.3 L 454.2,111.9" style="fill:none;fill-rule:evenodd;stroke:#000000;stroke-width:1.0px;stroke-linecap:butt;stroke-linejoin:miter;stroke-opacity:1"/>
<path class="bond-11 atom-7 atom-10" d="M 448.6,107.5 L 447.6,110.6" style="fill:none;fill-rule:evenodd;stroke:#000000;stroke-width:1.0px;stroke-linecap:butt;stroke-linejoin:miter;stroke-opacity:1"/>
<path class="bond-11 atom-7 atom-10" d="M 442.6,104.7 L 441.1,109.4" style="fill:none;fill-rule:evenodd;stroke:#000000;stroke-width:1.0px;stroke-linecap:butt;stroke-linejoin:miter;stroke-opacity:1"/>
<path class="bond-11 atom-7 atom-10" d="M 436.6,101.9 L 434.6,108.1" style="fill:none;fill-rule:evenodd;stroke:#000000;stroke-width:1.0px;stroke-linecap:butt;stroke-linejoin:miter;stroke-opacity:1"/>
<path class="bond-11 atom-7 atom-10" d="M 430.6,99.1 L 428.1,106.8" style="fill:none;fill-rule:evenodd;stroke:#000000;stroke-width:1.0px;stroke-linecap:butt;stroke-linejoin:miter;stroke-opacity:1"/>
<path class="bond-11 atom-7 atom-10" d="M 424.6,96.3 L 421.6,105.6" style="fill:none;fill-rule:evenodd;stroke:#000000;stroke-width:1.0px;stroke-linecap:butt;stroke-linejoin:miter;stroke-opacity:1"/>
<path class="atom-0" d="M 444.5 26.1 L 446.6 24.0 L 443.9 23.5 L 444.3 22.1 L 446.8 23.4 L 446.4 20.7 L 447.9 20.6 L 447.5 23.3 L 450.0 22.2 L 450.4 23.5 L 447.7 24.0 L 449.6 26.1 L 448.4 26.9 L 447.1 24.4 L 445.7 26.9 L 444.5 26.1 " fill="#191919"/>
<path class="atom-3" d="M 550.3 26.1 L 552.3 24.0 L 549.6 23.5 L 550.0 22.1 L 552.5 23.4 L 552.1 20.7 L 553.6 20.6 L 553.2 23.3 L 555.7 22.2 L 556.1 23.5 L 553.4 24.0 L 555.3 26.1 L 554.1 26.9 L 552.8 24.4 L 551.4 26.9 L 550.3 26.1 " fill="#191919"/>
<path class="atom-9" d="M 580.1 91.3 L 582.0 91.3 L 582.0 97.1 L 589.0 97.1 L 589.0 91.3 L 590.9 91.3 L 590.9 105.0 L 589.0 105.0 L 589.0 98.7 L 582.0 98.7 L 582.0 105.0 L 580.1 105.0 L 580.1 91.3 " fill="#000000"/>
<path class="atom-10" d="M 409.1 91.3 L 411.0 91.3 L 411.0 97.1 L 418.0 97.1 L 418.0 91.3 L 419.9 91.3 L 419.9 105.0 L 418.0 105.0 L 418.0 98.7 L 411.0 98.7 L 411.0 105.0 L 409.1 105.0 L 409.1 91.3 " fill="#000000"/>
<path class="note" d="M 478.3 53.6 Q 478.3 52.2, 478.7 51.1 Q 479.1 49.9, 479.9 48.7 L 480.5 49.0 Q 479.8 50.2, 479.5 51.2 Q 479.2 52.3, 479.2 53.6 Q 479.2 54.9, 479.5 55.9 Q 479.8 57.0, 480.5 58.2 L 479.9 58.5 Q 479.1 57.3, 478.7 56.1 Q 478.3 55.0, 478.3 53.6 " fill="#000000"/>
<path class="note" d="M 484.4 56.4 L 482.7 53.5 L 482.7 53.5 L 481.6 53.5 L 481.6 56.4 L 480.7 56.4 L 480.7 49.5 L 482.7 49.5 Q 483.9 49.5, 484.5 50.0 Q 485.1 50.5, 485.1 51.5 Q 485.1 52.2, 484.7 52.7 Q 484.4 53.2, 483.7 53.4 L 485.4 56.4 L 484.4 56.4 M 481.6 52.8 L 482.7 52.8 Q 483.4 52.8, 483.8 52.4 Q 484.1 52.1, 484.1 51.5 Q 484.1 50.9, 483.8 50.6 Q 483.4 50.3, 482.7 50.3 L 481.6 50.3 L 481.6 52.8 " fill="#000000"/>
<path class="note" d="M 487.8 53.6 Q 487.8 55.0, 487.4 56.1 Q 487.0 57.3, 486.2 58.5 L 485.7 58.2 Q 486.3 57.0, 486.6 55.9 Q 486.9 54.9, 486.9 53.6 Q 486.9 52.3, 486.6 51.2 Q 486.3 50.2, 485.7 49.0 L 486.2 48.7 Q 487.0 49.9, 487.4 51.1 Q 487.8 52.2, 487.8 53.6 " fill="#000000"/>
<path class="note" d="M 512.2 53.6 Q 512.2 52.2, 512.6 51.1 Q 513.1 49.9, 513.8 48.7 L 514.4 49.0 Q 513.8 50.2, 513.4 51.2 Q 513.1 52.3, 513.1 53.6 Q 513.1 54.9, 513.4 55.9 Q 513.8 57.0, 514.4 58.2 L 513.8 58.5 Q 513.1 57.3, 512.6 56.1 Q 512.2 55.0, 512.2 53.6 " fill="#000000"/>
<path class="note" d="M 514.9 55.3 Q 515.0 55.3, 515.3 55.5 Q 515.6 55.6, 516.0 55.7 Q 516.3 55.8, 516.7 55.8 Q 517.3 55.8, 517.7 55.4 Q 518.1 55.1, 518.1 54.6 Q 518.1 54.2, 517.9 54.0 Q 517.7 53.7, 517.4 53.6 Q 517.1 53.5, 516.6 53.3 Q 516.0 53.1, 515.6 53.0 Q 515.3 52.8, 515.0 52.4 Q 514.8 52.1, 514.8 51.4 Q 514.8 50.6, 515.4 50.0 Q 516.0 49.5, 517.1 49.5 Q 517.9 49.5, 518.8 49.9 L 518.6 50.6 Q 517.8 50.3, 517.1 50.3 Q 516.5 50.3, 516.1 50.6 Q 515.7 50.8, 515.7 51.3 Q 515.7 51.7, 515.9 51.9 Q 516.1 52.1, 516.4 52.3 Q 516.7 52.4, 517.1 52.5 Q 517.8 52.7, 518.1 52.9 Q 518.5 53.1, 518.8 53.5 Q 519.0 53.9, 519.0 54.6 Q 519.0 55.5, 518.4 56.0 Q 517.8 56.5, 516.7 56.5 Q 516.1 56.5, 515.6 56.4 Q 515.2 56.3, 514.6 56.1 L 514.9 55.3 " fill="#000000"/>
<path class="note" d="M 521.6 53.6 Q 521.6 55.0, 521.2 56.1 Q 520.8 57.3, 520.0 58.5 L 519.5 58.2 Q 520.1 57.0, 520.4 55.9 Q 520.8 54.9, 520.8 53.6 Q 520.8 52.3, 520.4 51.2 Q 520.1 50.2, 519.5 49.0 L 520.0 48.7 Q 520.8 49.9, 521.2 51.1 Q 521.6 52.2, 521.6 53.6 " fill="#000000"/>
<path class="note" d="M 542.7 100.2 Q 542.7 98.8, 543.1 97.7 Q 543.5 96.5, 544.3 95.3 L 544.9 95.6 Q 544.2 96.8, 543.9 97.8 Q 543.6 98.9, 543.6 100.2 Q 543.6 101.5, 543.9 102.6 Q 544.2 103.6, 544.9 104.8 L 544.3 105.1 Q 543.5 103.9, 543.1 102.8 Q 542.7 101.6, 542.7 100.2 " fill="#000000"/>
<path class="note" d="M 545.4 101.9 Q 545.4 101.9, 545.8 102.1 Q 546.1 102.2, 546.4 102.3 Q 546.8 102.4, 547.1 102.4 Q 547.8 102.4, 548.2 102.1 Q 548.5 101.7, 548.5 101.2 Q 548.5 100.8, 548.4 100.6 Q 548.2 100.3, 547.9 100.2 Q 547.6 100.1, 547.1 99.9 Q 546.5 99.8, 546.1 99.6 Q 545.8 99.4, 545.5 99.0 Q 545.2 98.7, 545.2 98.0 Q 545.2 97.2, 545.8 96.6 Q 546.4 96.1, 547.6 96.1 Q 548.4 96.1, 549.3 96.5 L 549.1 97.2 Q 548.2 96.9, 547.6 96.9 Q 546.9 96.9, 546.6 97.2 Q 546.2 97.5, 546.2 97.9 Q 546.2 98.3, 546.4 98.5 Q 546.6 98.7, 546.9 98.9 Q 547.1 99.0, 547.6 99.1 Q 548.2 99.3, 548.6 99.5 Q 549.0 99.7, 549.2 100.1 Q 549.5 100.5, 549.5 101.2 Q 549.5 102.1, 548.9 102.7 Q 548.2 103.2, 547.2 103.2 Q 546.6 103.2, 546.1 103.0 Q 545.6 102.9, 545.1 102.7 L 545.4 101.9 " fill="#000000"/>
<path class="note" d="M 552.1 100.2 Q 552.1 101.6, 551.7 102.8 Q 551.3 103.9, 550.5 105.1 L 550.0 104.8 Q 550.6 103.6, 550.9 102.6 Q 551.2 101.5, 551.2 100.2 Q 551.2 98.9, 550.9 97.8 Q 550.6 96.8, 550.0 95.6 L 550.5 95.3 Q 551.3 96.5, 551.7 97.7 Q 552.1 98.8, 552.1 100.2 " fill="#000000"/>
<path class="note" d="M 449.9 119.7 Q 449.9 118.3, 450.3 117.1 Q 450.7 116.0, 451.5 114.7 L 452.1 115.1 Q 451.4 116.2, 451.1 117.3 Q 450.8 118.3, 450.8 119.7 Q 450.8 121.0, 451.1 122.0 Q 451.4 123.0, 452.1 124.2 L 451.5 124.6 Q 450.7 123.3, 450.3 122.2 Q 449.9 121.1, 449.9 119.7 " fill="#000000"/>
<path class="note" d="M 456.0 122.4 L 454.4 119.6 L 454.3 119.6 L 453.2 119.6 L 453.2 122.4 L 452.3 122.4 L 452.3 115.5 L 454.3 115.5 Q 455.5 115.5, 456.1 116.1 Q 456.7 116.6, 456.7 117.6 Q 456.7 118.3, 456.3 118.8 Q 456.0 119.3, 455.3 119.5 L 457.0 122.4 L 456.0 122.4 M 453.2 118.8 L 454.3 118.8 Q 455.0 118.8, 455.4 118.5 Q 455.7 118.2, 455.7 117.6 Q 455.7 117.0, 455.4 116.6 Q 455.0 116.3, 454.3 116.3 L 453.2 116.3 L 453.2 118.8 " fill="#000000"/>
<path class="note" d="M 459.4 119.7 Q 459.4 121.1, 459.0 122.2 Q 458.6 123.3, 457.8 124.6 L 457.3 124.2 Q 457.9 123.0, 458.2 122.0 Q 458.5 121.0, 458.5 119.7 Q 458.5 118.3, 458.2 117.3 Q 457.9 116.2, 457.3 115.1 L 457.8 114.7 Q 458.6 116.0, 459.0 117.1 Q 459.4 118.3, 459.4 119.7 " fill="#000000"/>
<path class="atom-1" d="M 470.8,66.9 L 470.8,67.0 L 470.8,67.1 L 470.8,67.2 L 470.8,67.3 L 470.8,67.3 L 470.7,67.4 L 470.7,67.5 L 470.6,67.6 L 470.6,67.6 L 470.5,67.7 L 470.4,67.7 L 470.4,67.8 L 470.3,67.8 L 470.2,67.8 L 470.1,67.9 L 470.1,67.9 L 470.0,67.9 L 469.9,67.9 L 469.8,67.9 L 469.7,67.9 L 469.6,67.9 L 469.6,67.9 L 469.5,67.8 L 469.4,67.8 L 469.3,67.8 L 469.3,67.7 L 469.2,67.6 L 469.1,67.6 L 469.1,67.5 L 469.0,67.5 L 469.0,67.4 L 469.0,67.3 L 468.9,67.2 L 468.9,67.1 L 468.9,67.1 L 468.9,67.0 L 468.9,66.9 L 468.9,66.8 L 468.9,66.7 L 468.9,66.7 L 469.0,66.6 L 469.0,66.5 L 469.0,66.4 L 469.1,66.4 L 469.1,66.3 L 469.2,66.2 L 469.3,66.2 L 469.3,66.1 L 469.4,66.1 L 469.5,66.0 L 469.6,66.0 L 469.6,66.0 L 469.7,66.0 L 469.8,66.0 L 469.9,66.0 L 470.0,66.0 L 470.1,66.0 L 470.1,66.0 L 470.2,66.0 L 470.3,66.1 L 470.4,66.1 L 470.4,66.2 L 470.5,66.2 L 470.6,66.3 L 470.6,66.3 L 470.7,66.4 L 470.7,66.5 L 470.8,66.5 L 470.8,66.6 L 470.8,66.7 L 470.8,66.8 L 470.8,66.9 L 470.8,66.9 L 469.9,66.9 Z" style="fill:#000000;fill-rule:evenodd;fill-opacity:1;stroke:#000000;stroke-width:0.0px;stroke-linecap:butt;stroke-linejoin:miter;stroke-opacity:1;"/>
<path class="atom-4" d="M 546.1,113.2 L 546.1,113.2 L 546.1,113.3 L 546.1,113.4 L 546.1,113.5 L 546.0,113.6 L 546.0,113.6 L 545.9,113.7 L 545.9,113.8 L 545.8,113.8 L 545.8,113.9 L 545.7,113.9 L 545.6,114.0 L 545.6,114.0 L 545.5,114.1 L 545.4,114.1 L 545.3,114.1 L 545.2,114.1 L 545.2,114.1 L 545.1,114.1 L 545.0,114.1 L 544.9,114.1 L 544.8,114.1 L 544.8,114.0 L 544.7,114.0 L 544.6,114.0 L 544.5,113.9 L 544.5,113.9 L 544.4,113.8 L 544.4,113.7 L 544.3,113.7 L 544.3,113.6 L 544.2,113.5 L 544.2,113.4 L 544.2,113.4 L 544.2,113.3 L 544.2,113.2 L 544.2,113.1 L 544.2,113.0 L 544.2,112.9 L 544.2,112.9 L 544.2,112.8 L 544.3,112.7 L 544.3,112.6 L 544.4,112.6 L 544.4,112.5 L 544.5,112.4 L 544.5,112.4 L 544.6,112.3 L 544.7,112.3 L 544.8,112.3 L 544.8,112.2 L 544.9,112.2 L 545.0,112.2 L 545.1,112.2 L 545.2,112.2 L 545.2,112.2 L 545.3,112.2 L 545.4,112.2 L 545.5,112.2 L 545.6,112.3 L 545.6,112.3 L 545.7,112.4 L 545.8,112.4 L 545.8,112.5 L 545.9,112.5 L 545.9,112.6 L 546.0,112.7 L 546.0,112.7 L 546.1,112.8 L 546.1,112.9 L 546.1,113.0 L 546.1,113.1 L 546.1,113.2 L 545.1,113.2 Z" style="fill:#000000;fill-rule:evenodd;fill-opacity:1;stroke:#000000;stroke-width:0.0px;stroke-linecap:butt;stroke-linejoin:miter;stroke-opacity:1;"/>
<path class="atom-7" d="M 455.8,113.2 L 455.8,113.2 L 455.8,113.3 L 455.8,113.4 L 455.8,113.5 L 455.7,113.6 L 455.7,113.6 L 455.7,113.7 L 455.6,113.8 L 455.6,113.8 L 455.5,113.9 L 455.4,113.9 L 455.4,114.0 L 455.3,114.0 L 455.2,114.1 L 455.1,114.1 L 455.0,114.1 L 455.0,114.1 L 454.9,114.1 L 454.8,114.1 L 454.7,114.1 L 454.6,114.1 L 454.5,114.1 L 454.5,114.0 L 454.4,114.0 L 454.3,114.0 L 454.3,113.9 L 454.2,113.9 L 454.1,113.8 L 454.1,113.7 L 454.0,113.7 L 454.0,113.6 L 454.0,113.5 L 453.9,113.4 L 453.9,113.4 L 453.9,113.3 L 453.9,113.2 L 453.9,113.1 L 453.9,113.0 L 453.9,112.9 L 453.9,112.9 L 454.0,112.8 L 454.0,112.7 L 454.0,112.6 L 454.1,112.6 L 454.1,112.5 L 454.2,112.4 L 454.3,112.4 L 454.3,112.3 L 454.4,112.3 L 454.5,112.3 L 454.5,112.2 L 454.6,112.2 L 454.7,112.2 L 454.8,112.2 L 454.9,112.2 L 455.0,112.2 L 455.0,112.2 L 455.1,112.2 L 455.2,112.2 L 455.3,112.3 L 455.4,112.3 L 455.4,112.4 L 455.5,112.4 L 455.6,112.5 L 455.6,112.5 L 455.7,112.6 L 455.7,112.7 L 455.7,112.7 L 455.8,112.8 L 455.8,112.9 L 455.8,113.0 L 455.8,113.1 L 455.8,113.2 L 454.9,113.2 Z" style="fill:#000000;fill-rule:evenodd;fill-opacity:1;stroke:#000000;stroke-width:0.0px;stroke-linecap:butt;stroke-linejoin:miter;stroke-opacity:1;"/>
<path class="legend" d="M 472.5 192.9 Q 472.6 193.0, 473.2 193.2 Q 473.7 193.4, 474.3 193.6 Q 474.9 193.7, 475.4 193.7 Q 476.5 193.7, 477.1 193.2 Q 477.8 192.7, 477.8 191.8 Q 477.8 191.1, 477.4 190.7 Q 477.1 190.4, 476.7 190.2 Q 476.2 189.9, 475.4 189.7 Q 474.4 189.4, 473.8 189.1 Q 473.2 188.8, 472.7 188.2 Q 472.3 187.6, 472.3 186.6 Q 472.3 185.2, 473.3 184.3 Q 474.3 183.4, 476.2 183.4 Q 477.5 183.4, 479.0 184.0 L 478.6 185.3 Q 477.3 184.7, 476.2 184.7 Q 475.1 184.7, 474.5 185.2 Q 473.9 185.6, 473.9 186.4 Q 473.9 187.0, 474.2 187.4 Q 474.6 187.7, 475.0 187.9 Q 475.5 188.2, 476.2 188.4 Q 477.3 188.7, 477.9 189.0 Q 478.5 189.4, 478.9 190.0 Q 479.4 190.6, 479.4 191.8 Q 479.4 193.3, 478.3 194.2 Q 477.3 195.0, 475.5 195.0 Q 474.5 195.0, 473.7 194.8 Q 473.0 194.6, 472.1 194.2 L 472.5 192.9 " fill="#000000"/>
<path class="legend" d="M 493.0 194.7 L 491.6 194.7 L 490.4 185.4 L 487.4 194.7 L 485.8 194.7 L 482.7 185.4 L 481.6 194.7 L 480.1 194.7 L 481.5 183.4 L 483.4 183.4 L 486.6 192.5 L 489.7 183.4 L 491.6 183.4 L 493.0 194.7 " fill="#000000"/>
<path class="legend" d="M 502.4 194.7 L 501.3 191.4 L 496.8 191.4 L 495.6 194.7 L 494.1 194.7 L 498.0 183.4 L 499.9 183.4 L 503.9 194.7 L 502.4 194.7 M 497.2 190.1 L 500.8 190.1 L 499.0 185.0 L 497.2 190.1 " fill="#000000"/>
<path class="legend" d="M 510.2 194.7 L 507.5 190.0 L 507.5 190.0 L 505.7 190.0 L 505.7 194.7 L 504.1 194.7 L 504.1 183.4 L 507.5 183.4 Q 509.4 183.4, 510.4 184.2 Q 511.4 185.1, 511.4 186.7 Q 511.4 187.9, 510.8 188.7 Q 510.2 189.5, 509.0 189.8 L 511.9 194.7 L 510.2 194.7 M 505.7 188.8 L 507.5 188.8 Q 508.6 188.8, 509.2 188.2 Q 509.8 187.7, 509.8 186.7 Q 509.8 185.7, 509.2 185.2 Q 508.6 184.6, 507.5 184.6 L 505.7 184.6 L 505.7 188.8 " fill="#000000"/>
<path class="legend" d="M 515.8 184.6 L 512.3 184.6 L 512.3 183.4 L 520.6 183.4 L 520.6 184.6 L 517.3 184.6 L 517.3 194.7 L 515.8 194.7 L 515.8 184.6 " fill="#000000"/>
<path class="legend" d="M 521.1 192.9 Q 521.2 193.0, 521.7 193.2 Q 522.3 193.4, 522.8 193.6 Q 523.4 193.7, 524.0 193.7 Q 525.1 193.7, 525.7 193.2 Q 526.3 192.7, 526.3 191.8 Q 526.3 191.1, 526.0 190.7 Q 525.7 190.4, 525.2 190.2 Q 524.7 189.9, 523.9 189.7 Q 522.9 189.4, 522.3 189.1 Q 521.7 188.8, 521.3 188.2 Q 520.9 187.6, 520.9 186.6 Q 520.9 185.2, 521.8 184.3 Q 522.8 183.4, 524.7 183.4 Q 526.1 183.4, 527.5 184.0 L 527.2 185.3 Q 525.8 184.7, 524.8 184.7 Q 523.7 184.7, 523.1 185.2 Q 522.5 185.6, 522.5 186.4 Q 522.5 187.0, 522.8 187.4 Q 523.1 187.7, 523.6 187.9 Q 524.0 188.2, 524.8 188.4 Q 525.8 188.7, 526.4 189.0 Q 527.0 189.4, 527.5 190.0 Q 527.9 190.6, 527.9 191.8 Q 527.9 193.3, 526.9 194.2 Q 525.8 195.0, 524.1 195.0 Q 523.1 195.0, 522.3 194.8 Q 521.5 194.6, 520.6 194.2 L 521.1 192.9 " fill="#000000"/>
</svg>