<svg xmlns="http://www.w3.org/2000/svg" xmlns:rdkit="http://www.rdkit.org/xml" xmlns:xlink="http://www.w3.org/1999/xlink" version="1.1" baseProfile="full" xml:space="preserve" width="600px" height="200px" viewBox="0 0 600 200">
<!-- END OF HEADER -->
<rect style="opacity:1.0;fill:#FFFFFF;stroke:none" width="600.0" height="200.0" x="0.0" y="0.0"> </rect>
<path class="bond-0 atom-0 atom-1" d="M 123.2,73.9 L 147.0,60.1" style="fill:none;fill-rule:evenodd;stroke:#000000;stroke-width:2.0px;stroke-linecap:butt;stroke-linejoin:miter;stroke-opacity:1"/>
<path class="bond-0 atom-0 atom-1" d="M 147.0,60.1 L 170.9,46.3" style="fill:none;fill-rule:evenodd;stroke:#00CC00;stroke-width:2.0px;stroke-linecap:butt;stroke-linejoin:miter;stroke-opacity:1"/>
<path class="bond-1 atom-0 atom-2" d="M 123.2,73.9 L 123.2,101.1" style="fill:none;fill-rule:evenodd;stroke:#000000;stroke-width:2.0px;stroke-linecap:butt;stroke-linejoin:miter;stroke-opacity:1"/>
<path class="bond-1 atom-0 atom-2" d="M 123.2,101.1 L 123.2,128.2" style="fill:none;fill-rule:evenodd;stroke:#7F4C19;stroke-width:2.0px;stroke-linecap:butt;stroke-linejoin:miter;stroke-opacity:1"/>
<path class="bond-2 atom-0 atom-3" d="M 123.2,73.9 L 66.1,40.9" style="fill:none;fill-rule:evenodd;stroke:#000000;stroke-width:2.0px;stroke-linecap:butt;stroke-linejoin:miter;stroke-opacity:1"/>
<path class="bond-3 atom-3 atom-4" d="M 66.1,40.9 L 9.1,73.9" style="fill:none;fill-rule:evenodd;stroke:#000000;stroke-width:2.0px;stroke-linecap:butt;stroke-linejoin:miter;stroke-opacity:1"/>
<path class="atom-1" d="M 173.0 41.6 Q 173.0 36.9, 175.2 34.5 Q 177.4 32.1, 181.5 32.1 Q 185.4 32.1, 187.4 34.8 L 185.7 36.2 Q 184.2 34.2, 181.5 34.2 Q 178.7 34.2, 177.2 36.1 Q 175.7 38.0, 175.7 41.6 Q 175.7 45.3, 177.3 47.2 Q 178.8 49.1, 181.8 49.1 Q 183.9 49.1, 186.3 47.8 L 187.0 49.8 Q 186.0 50.4, 184.6 50.8 Q 183.1 51.2, 181.4 51.2 Q 177.4 51.2, 175.2 48.7 Q 173.0 46.2, 173.0 41.6 " fill="#00CC00"/>
<path class="atom-1" d="M 188.5 30.9 L 190.9 30.9 L 190.9 50.9 L 188.5 50.9 L 188.5 30.9 " fill="#00CC00"/>
<path class="atom-2" d="M 125.9 139.3 Q 127.7 139.8, 128.6 140.9 Q 129.5 142.0, 129.5 143.6 Q 129.5 146.1, 127.9 147.6 Q 126.2 149.1, 123.1 149.1 L 116.9 149.1 L 116.9 130.4 L 122.4 130.4 Q 125.5 130.4, 127.2 131.7 Q 128.8 133.0, 128.8 135.4 Q 128.8 138.2, 125.9 139.3 M 119.4 132.5 L 119.4 138.4 L 122.4 138.4 Q 124.2 138.4, 125.2 137.6 Q 126.1 136.9, 126.1 135.4 Q 126.1 132.5, 122.4 132.5 L 119.4 132.5 M 123.1 147.0 Q 124.9 147.0, 125.9 146.1 Q 126.9 145.2, 126.9 143.6 Q 126.9 142.0, 125.8 141.3 Q 124.8 140.5, 122.7 140.5 L 119.4 140.5 L 119.4 147.0 L 123.1 147.0 " fill="#7F4C19"/>
<path class="atom-2" d="M 132.7 135.5 L 133.0 137.4 Q 134.5 135.3, 136.8 135.3 Q 137.5 135.3, 138.5 135.6 L 138.1 137.8 Q 137.0 137.5, 136.4 137.5 Q 135.2 137.5, 134.5 137.9 Q 133.8 138.4, 133.2 139.4 L 133.2 149.1 L 130.7 149.1 L 130.7 135.5 L 132.7 135.5 " fill="#7F4C19"/>
<path class="legend" d="M 77.6 186.0 Q 77.6 183.5, 78.8 182.0 Q 80.1 180.6, 82.4 180.6 Q 84.7 180.6, 86.0 182.0 Q 87.2 183.5, 87.2 186.0 Q 87.2 188.5, 86.0 190.0 Q 84.7 191.4, 82.4 191.4 Q 80.1 191.4, 78.8 190.0 Q 77.6 188.6, 77.6 186.0 M 82.4 190.2 Q 84.0 190.2, 84.9 189.2 Q 85.7 188.1, 85.7 186.0 Q 85.7 183.9, 84.9 182.9 Q 84.0 181.8, 82.4 181.8 Q 80.8 181.8, 79.9 182.9 Q 79.0 183.9, 79.0 186.0 Q 79.0 188.1, 79.9 189.2 Q 80.8 190.2, 82.4 190.2 " fill="#000000"/>
<path class="legend" d="M 89.1 183.6 L 89.2 184.7 Q 90.0 183.5, 91.4 183.5 Q 91.8 183.5, 92.3 183.7 L 92.1 184.9 Q 91.5 184.8, 91.1 184.8 Q 90.5 184.8, 90.1 185.0 Q 89.7 185.2, 89.4 185.8 L 89.4 191.3 L 88.0 191.3 L 88.0 183.6 L 89.1 183.6 " fill="#000000"/>
<path class="legend" d="M 92.6 180.8 L 93.9 180.8 L 93.9 182.0 L 92.6 182.0 L 92.6 180.8 M 92.6 183.6 L 93.9 183.6 L 93.9 191.3 L 92.6 191.3 L 92.6 183.6 " fill="#000000"/>
<path class="legend" d="M 102.1 183.6 L 102.1 191.7 Q 102.1 195.0, 98.7 195.0 Q 97.0 195.0, 95.5 194.2 L 96.0 193.2 Q 96.8 193.6, 97.3 193.8 Q 97.9 193.9, 98.7 193.9 Q 99.8 193.9, 100.3 193.4 Q 100.7 192.9, 100.7 191.7 L 100.7 190.4 Q 99.9 191.4, 98.6 191.4 Q 97.0 191.4, 96.1 190.4 Q 95.2 189.4, 95.2 187.6 Q 95.2 185.7, 96.2 184.6 Q 97.3 183.5, 99.1 183.5 Q 100.1 183.5, 101.0 183.8 L 101.0 183.6 L 102.1 183.6 M 98.6 190.3 Q 99.4 190.3, 100.0 189.9 Q 100.5 189.4, 100.7 188.7 L 100.7 184.8 Q 100.0 184.6, 99.1 184.6 Q 98.0 184.6, 97.3 185.4 Q 96.6 186.2, 96.6 187.6 Q 96.6 188.9, 97.1 189.6 Q 97.7 190.3, 98.6 190.3 " fill="#000000"/>
<path class="legend" d="M 103.4 180.8 L 104.7 180.8 L 104.7 182.0 L 103.4 182.0 L 103.4 180.8 M 103.4 183.6 L 104.7 183.6 L 104.7 191.3 L 103.4 191.3 L 103.4 183.6 " fill="#000000"/>
<path class="legend" d="M 110.0 183.5 Q 111.2 183.5, 111.9 184.2 Q 112.5 184.9, 112.5 186.2 L 112.5 191.3 L 111.1 191.3 L 111.1 186.3 Q 111.1 185.4, 110.8 185.0 Q 110.4 184.6, 109.6 184.6 Q 108.9 184.6, 108.4 184.9 Q 107.8 185.2, 107.4 185.8 L 107.4 191.3 L 106.0 191.3 L 106.0 183.6 L 107.2 183.6 L 107.3 184.7 Q 108.3 183.5, 110.0 183.5 " fill="#000000"/>
<path class="legend" d="M 113.6 189.2 Q 113.6 188.0, 114.6 187.3 Q 115.6 186.7, 117.4 186.7 L 118.5 186.7 L 118.5 186.4 Q 118.5 185.4, 118.1 185.0 Q 117.7 184.6, 116.8 184.6 Q 116.2 184.6, 115.7 184.7 Q 115.2 184.8, 114.5 185.2 L 114.1 184.2 Q 115.5 183.5, 116.8 183.5 Q 118.4 183.5, 119.2 184.2 Q 119.9 184.9, 119.9 186.4 L 119.9 191.3 L 118.8 191.3 Q 118.8 191.2, 118.8 191.0 Q 118.7 190.8, 118.7 190.4 Q 117.6 191.5, 116.2 191.5 Q 115.0 191.5, 114.3 190.8 Q 113.6 190.2, 113.6 189.2 M 115.0 189.2 Q 115.0 189.7, 115.4 190.1 Q 115.8 190.4, 116.4 190.4 Q 117.0 190.4, 117.6 190.1 Q 118.1 189.8, 118.5 189.3 L 118.5 187.7 L 117.5 187.7 Q 116.3 187.7, 115.7 188.1 Q 115.0 188.4, 115.0 189.2 " fill="#000000"/>
<path class="legend" d="M 121.1 180.0 L 122.4 180.0 L 122.4 191.3 L 121.1 191.3 L 121.1 180.0 " fill="#000000"/>
<path class="bond-0 atom-0 atom-3" d="M 323.2,73.9 L 266.1,40.9" style="fill:none;fill-rule:evenodd;stroke:#000000;stroke-width:2.0px;stroke-linecap:butt;stroke-linejoin:miter;stroke-opacity:1"/>
<path class="bond-1 atom-0 atom-2" d="M 323.2,73.9 L 323.2,101.1" style="fill:none;fill-rule:evenodd;stroke:#000000;stroke-width:2.0px;stroke-linecap:butt;stroke-linejoin:miter;stroke-opacity:1"/>
<path class="bond-1 atom-0 atom-2" d="M 323.2,101.1 L 323.2,128.2" style="fill:none;fill-rule:evenodd;stroke:#7F4C19;stroke-width:2.0px;stroke-linecap:butt;stroke-linejoin:miter;stroke-opacity:1"/>
<path class="bond-2 atom-0 atom-1" d="M 331.3,70.4 L 330.2,68.5" style="fill:none;fill-rule:evenodd;stroke:#000000;stroke-width:1.0px;stroke-linecap:butt;stroke-linejoin:miter;stroke-opacity:1"/>
<path class="bond-2 atom-0 atom-1" d="M 339.5,67.0 L 337.3,63.2" style="fill:none;fill-rule:evenodd;stroke:#000000;stroke-width:1.0px;stroke-linecap:butt;stroke-linejoin:miter;stroke-opacity:1"/>
<path class="bond-2 atom-0 atom-1" d="M 347.6,63.6 L 344.3,57.9" style="fill:none;fill-rule:evenodd;stroke:#000000;stroke-width:1.0px;stroke-linecap:butt;stroke-linejoin:miter;stroke-opacity:1"/>
<path class="bond-2 atom-0 atom-1" d="M 355.7,60.2 L 351.3,52.5" style="fill:none;fill-rule:evenodd;stroke:#00CC00;stroke-width:1.0px;stroke-linecap:butt;stroke-linejoin:miter;stroke-opacity:1"/>
<path class="bond-2 atom-0 atom-1" d="M 363.9,56.7 L 358.4,47.2" style="fill:none;fill-rule:evenodd;stroke:#00CC00;stroke-width:1.0px;stroke-linecap:butt;stroke-linejoin:miter;stroke-opacity:1"/>
<path class="bond-2 atom-0 atom-1" d="M 372.0,53.3 L 365.4,41.9" style="fill:none;fill-rule:evenodd;stroke:#00CC00;stroke-width:1.0px;stroke-linecap:butt;stroke-linejoin:miter;stroke-opacity:1"/>
<path class="bond-3 atom-3 atom-4" d="M 266.1,40.9 L 209.1,73.9" style="fill:none;fill-rule:evenodd;stroke:#000000;stroke-width:2.0px;stroke-linecap:butt;stroke-linejoin:miter;stroke-opacity:1"/>
<path class="atom-1" d="M 373.0 41.6 Q 373.0 36.9, 375.2 34.5 Q 377.4 32.1, 381.5 32.1 Q 385.4 32.1, 387.4 34.8 L 385.7 36.2 Q 384.2 34.2, 381.5 34.2 Q 378.7 34.2, 377.2 36.1 Q 375.7 38.0, 375.7 41.6 Q 375.7 45.3, 377.3 47.2 Q 378.8 49.1, 381.8 49.1 Q 383.9 49.1, 386.3 47.8 L 387.0 49.8 Q 386.0 50.4, 384.6 50.8 Q 383.1 51.2, 381.4 51.2 Q 377.4 51.2, 375.2 48.7 Q 373.0 46.2, 373.0 41.6 " fill="#00CC00"/>
<path class="atom-1" d="M 388.5 30.9 L 390.9 30.9 L 390.9 50.9 L 388.5 50.9 L 388.5 30.9 " fill="#00CC00"/>
<path class="atom-2" d="M 325.9 139.3 Q 327.7 139.8, 328.6 140.9 Q 329.5 142.0, 329.5 143.6 Q 329.5 146.1, 327.9 147.6 Q 326.2 149.1, 323.1 149.1 L 316.9 149.1 L 316.9 130.4 L 322.4 130.4 Q 325.5 130.4, 327.2 131.7 Q 328.8 133.0, 328.8 135.4 Q 328.8 138.2, 325.9 139.3 M 319.4 132.5 L 319.4 138.4 L 322.4 138.4 Q 324.2 138.4, 325.2 137.6 Q 326.1 136.9, 326.1 135.4 Q 326.1 132.5, 322.4 132.5 L 319.4 132.5 M 323.1 147.0 Q 324.9 147.0, 325.9 146.1 Q 326.9 145.2, 326.9 143.6 Q 326.9 142.0, 325.8 141.3 Q 324.8 140.5, 322.7 140.5 L 319.4 140.5 L 319.4 147.0 L 323.1 147.0 " fill="#7F4C19"/>
<path class="atom-2" d="M 332.7 135.5 L 333.0 137.4 Q 334.5 135.3, 336.8 135.3 Q 337.5 135.3, 338.5 135.6 L 338.1 137.8 Q 337.0 137.5, 336.4 137.5 Q 335.2 137.5, 334.5 137.9 Q 333.8 138.4, 333.2 139.4 L 333.2 149.1 L 330.7 149.1 L 330.7 135.5 L 332.7 135.5 " fill="#7F4C19"/>
<path class="note" d="M 297.7 86.3 Q 297.7 84.4, 298.3 82.9 Q 298.8 81.3, 299.9 79.6 L 300.6 80.1 Q 299.8 81.7, 299.4 83.1 Q 298.9 84.5, 298.9 86.3 Q 298.9 88.1, 299.4 89.5 Q 299.8 90.9, 300.6 92.5 L 299.9 93.0 Q 298.8 91.3, 298.3 89.8 Q 297.7 88.2, 297.7 86.3 " fill="#000000"/>
<path class="note" d="M 306.0 90.1 L 303.8 86.2 L 303.7 86.2 L 302.2 86.2 L 302.2 90.1 L 301.0 90.1 L 301.0 80.7 L 303.7 80.7 Q 305.3 80.7, 306.1 81.5 Q 306.9 82.2, 306.9 83.5 Q 306.9 84.5, 306.4 85.1 Q 306.0 85.8, 305.0 86.1 L 307.4 90.1 L 306.0 90.1 M 302.2 85.2 L 303.7 85.2 Q 304.6 85.2, 305.1 84.7 Q 305.6 84.3, 305.6 83.5 Q 305.6 82.6, 305.1 82.2 Q 304.6 81.8, 303.7 81.8 L 302.2 81.8 L 302.2 85.2 " fill="#000000"/>
<path class="note" d="M 310.6 86.3 Q 310.6 88.2, 310.0 89.8 Q 309.5 91.3, 308.4 93.0 L 307.7 92.5 Q 308.6 90.9, 309.0 89.5 Q 309.4 88.1, 309.4 86.3 Q 309.4 84.5, 309.0 83.1 Q 308.6 81.7, 307.7 80.1 L 308.4 79.6 Q 309.5 81.3, 310.0 82.9 Q 310.6 84.4, 310.6 86.3 " fill="#000000"/>
<path class="legend" d="M 270.5 182.0 L 267.3 182.0 L 267.3 180.8 L 275.1 180.8 L 275.1 182.0 L 272.0 182.0 L 272.0 191.3 L 270.5 191.3 L 270.5 182.0 " fill="#000000"/>
<path class="legend" d="M 275.1 187.5 Q 275.1 185.6, 276.0 184.6 Q 276.9 183.5, 278.7 183.5 Q 280.3 183.5, 281.1 184.5 Q 281.9 185.5, 281.9 187.4 L 281.9 187.7 L 276.5 187.7 Q 276.5 189.0, 277.1 189.7 Q 277.7 190.4, 278.8 190.4 Q 279.4 190.4, 279.9 190.2 Q 280.5 190.1, 281.2 189.8 L 281.6 190.7 Q 280.8 191.1, 280.1 191.3 Q 279.4 191.5, 278.7 191.5 Q 277.0 191.5, 276.0 190.4 Q 275.1 189.4, 275.1 187.5 M 278.7 184.6 Q 277.8 184.6, 277.2 185.1 Q 276.7 185.6, 276.6 186.6 L 280.4 186.6 Q 280.3 185.6, 279.9 185.1 Q 279.4 184.6, 278.7 184.6 " fill="#000000"/>
<path class="legend" d="M 291.3 183.5 Q 292.6 183.5, 293.3 184.2 Q 293.9 184.9, 293.9 186.3 L 293.9 191.3 L 292.5 191.3 L 292.5 186.4 Q 292.5 185.5, 292.1 185.0 Q 291.8 184.6, 291.0 184.6 Q 290.4 184.6, 289.8 185.0 Q 289.2 185.3, 288.9 185.8 Q 288.9 186.0, 288.9 186.3 L 288.9 191.3 L 287.5 191.3 L 287.5 186.4 Q 287.5 185.5, 287.1 185.0 Q 286.8 184.6, 286.0 184.6 Q 285.3 184.6, 284.8 185.0 Q 284.2 185.3, 283.8 185.8 L 283.8 191.3 L 282.4 191.3 L 282.4 183.7 L 283.6 183.7 L 283.7 184.7 Q 284.7 183.5, 286.3 183.5 Q 288.1 183.5, 288.6 184.9 Q 289.7 183.5, 291.3 183.5 " fill="#000000"/>
<path class="legend" d="M 298.6 183.5 Q 300.2 183.5, 301.1 184.5 Q 302.0 185.5, 302.0 187.4 Q 302.0 189.3, 300.9 190.4 Q 299.9 191.5, 298.1 191.5 Q 297.2 191.5, 296.5 191.2 L 296.5 195.0 L 295.1 195.0 L 295.1 183.7 L 296.2 183.7 L 296.4 184.6 Q 296.8 184.1, 297.3 183.8 Q 297.9 183.5, 298.6 183.5 M 298.1 190.4 Q 299.2 190.4, 299.9 189.6 Q 300.6 188.8, 300.6 187.4 Q 300.6 186.1, 300.0 185.3 Q 299.5 184.6, 298.5 184.6 Q 297.8 184.6, 297.2 185.0 Q 296.7 185.4, 296.5 186.2 L 296.5 190.1 Q 297.2 190.4, 298.1 190.4 " fill="#000000"/>
<path class="legend" d="M 302.7 180.0 L 304.1 180.0 L 304.1 191.3 L 302.7 191.3 L 302.7 180.0 " fill="#000000"/>
<path class="legend" d="M 305.3 189.3 Q 305.3 188.0, 306.3 187.4 Q 307.3 186.7, 309.1 186.7 L 310.3 186.7 L 310.3 186.4 Q 310.3 185.4, 309.9 185.0 Q 309.5 184.6, 308.5 184.6 Q 307.9 184.6, 307.4 184.8 Q 306.9 184.9, 306.2 185.2 L 305.8 184.2 Q 307.2 183.5, 308.5 183.5 Q 310.2 183.5, 310.9 184.2 Q 311.7 184.9, 311.7 186.4 L 311.7 191.3 L 310.6 191.3 Q 310.6 191.3, 310.5 191.1 Q 310.5 190.8, 310.4 190.4 Q 309.3 191.5, 307.9 191.5 Q 306.7 191.5, 306.0 190.9 Q 305.3 190.3, 305.3 189.3 M 306.7 189.2 Q 306.7 189.8, 307.1 190.1 Q 307.5 190.4, 308.1 190.4 Q 308.7 190.4, 309.3 190.1 Q 309.9 189.9, 310.3 189.4 L 310.3 187.7 L 309.2 187.7 Q 308.0 187.7, 307.4 188.1 Q 306.7 188.5, 306.7 189.2 " fill="#000000"/>
<path class="legend" d="M 312.8 184.7 L 312.8 183.7 L 314.3 183.7 L 314.5 181.4 L 315.6 181.4 L 315.6 183.7 L 317.9 183.7 L 317.9 184.7 L 315.6 184.7 L 315.6 189.0 Q 315.6 190.3, 316.7 190.3 Q 317.1 190.3, 317.8 190.1 L 318.0 191.1 Q 317.2 191.4, 316.4 191.4 Q 315.4 191.4, 314.8 190.8 Q 314.2 190.2, 314.2 189.1 L 314.2 184.7 L 312.8 184.7 " fill="#000000"/>
<path class="legend" d="M 318.4 187.5 Q 318.4 185.6, 319.3 184.6 Q 320.3 183.5, 322.0 183.5 Q 323.7 183.5, 324.4 184.5 Q 325.2 185.5, 325.2 187.4 L 325.2 187.7 L 319.8 187.7 Q 319.9 189.0, 320.4 189.7 Q 321.0 190.4, 322.1 190.4 Q 322.7 190.4, 323.3 190.2 Q 323.8 190.1, 324.5 189.8 L 324.9 190.7 Q 324.1 191.1, 323.4 191.3 Q 322.8 191.5, 322.0 191.5 Q 320.3 191.5, 319.4 190.4 Q 318.4 189.4, 318.4 187.5 M 322.0 184.6 Q 321.1 184.6, 320.6 185.1 Q 320.1 185.6, 319.9 186.6 L 323.7 186.6 Q 323.6 185.6, 323.2 185.1 Q 322.8 184.6, 322.0 184.6 " fill="#000000"/>
<path class="legend" d="M 332.7 180.0 L 332.7 191.3 L 331.6 191.3 L 331.4 190.4 Q 330.6 191.5, 329.1 191.5 Q 327.5 191.5, 326.6 190.5 Q 325.8 189.5, 325.8 187.6 Q 325.8 185.7, 326.8 184.6 Q 327.9 183.5, 329.7 183.5 Q 330.5 183.5, 331.3 183.7 L 331.3 180.0 L 332.7 180.0 M 329.2 190.4 Q 330.0 190.4, 330.6 189.9 Q 331.1 189.5, 331.3 188.7 L 331.3 184.9 Q 330.6 184.6, 329.7 184.6 Q 328.5 184.6, 327.9 185.4 Q 327.2 186.2, 327.2 187.6 Q 327.2 188.9, 327.7 189.7 Q 328.3 190.4, 329.2 190.4 " fill="#000000"/>
<path class="bond-0 atom-0 atom-1" d="M 523.2,128.2 L 523.2,101.1" style="fill:none;fill-rule:evenodd;stroke:#7F4C19;stroke-width:2.0px;stroke-linecap:butt;stroke-linejoin:miter;stroke-opacity:1"/>
<path class="bond-0 atom-0 atom-1" d="M 523.2,101.1 L 523.2,73.9" style="fill:none;fill-rule:evenodd;stroke:#000000;stroke-width:2.0px;stroke-linecap:butt;stroke-linejoin:miter;stroke-opacity:1"/>
<path class="bond-1 atom-1 atom-2" d="M 531.3,70.4 L 530.2,68.5" style="fill:none;fill-rule:evenodd;stroke:#000000;stroke-width:1.0px;stroke-linecap:butt;stroke-linejoin:miter;stroke-opacity:1"/>
<path class="bond-1 atom-1 atom-2" d="M 539.5,67.0 L 537.3,63.2" style="fill:none;fill-rule:evenodd;stroke:#000000;stroke-width:1.0px;stroke-linecap:butt;stroke-linejoin:miter;stroke-opacity:1"/>
<path class="bond-1 atom-1 atom-2" d="M 547.6,63.6 L 544.3,57.9" style="fill:none;fill-rule:evenodd;stroke:#000000;stroke-width:1.0px;stroke-linecap:butt;stroke-linejoin:miter;stroke-opacity:1"/>
<path class="bond-1 atom-1 atom-2" d="M 555.7,60.2 L 551.3,52.5" style="fill:none;fill-rule:evenodd;stroke:#00CC00;stroke-width:1.0px;stroke-linecap:butt;stroke-linejoin:miter;stroke-opacity:1"/>
<path class="bond-1 atom-1 atom-2" d="M 563.9,56.7 L 558.4,47.2" style="fill:none;fill-rule:evenodd;stroke:#00CC00;stroke-width:1.0px;stroke-linecap:butt;stroke-linejoin:miter;stroke-opacity:1"/>
<path class="bond-1 atom-1 atom-2" d="M 572.0,53.3 L 565.4,41.9" style="fill:none;fill-rule:evenodd;stroke:#00CC00;stroke-width:1.0px;stroke-linecap:butt;stroke-linejoin:miter;stroke-opacity:1"/>
<path class="bond-2 atom-1 atom-3" d="M 523.2,73.9 L 466.1,40.9" style="fill:none;fill-rule:evenodd;stroke:#000000;stroke-width:2.0px;stroke-linecap:butt;stroke-linejoin:miter;stroke-opacity:1"/>
<path class="bond-3 atom-3 atom-4" d="M 466.1,40.9 L 409.1,73.9" style="fill:none;fill-rule:evenodd;stroke:#000000;stroke-width:2.0px;stroke-linecap:butt;stroke-linejoin:miter;stroke-opacity:1"/>
<path class="atom-0" d="M 525.9 139.3 Q 527.7 139.8, 528.6 140.9 Q 529.5 142.0, 529.5 143.6 Q 529.5 146.1, 527.9 147.6 Q 526.2 149.1, 523.1 149.1 L 516.9 149.1 L 516.9 130.4 L 522.4 130.4 Q 525.5 130.4, 527.2 131.7 Q 528.8 133.0, 528.8 135.4 Q 528.8 138.2, 525.9 139.3 M 519.4 132.5 L 519.4 138.4 L 522.4 138.4 Q 524.2 138.4, 525.2 137.6 Q 526.1 136.9, 526.1 135.4 Q 526.1 132.5, 522.4 132.5 L 519.4 132.5 M 523.1 147.0 Q 524.9 147.0, 525.9 146.1 Q 526.9 145.2, 526.9 143.6 Q 526.9 142.0, 525.8 141.3 Q 524.8 140.5, 522.7 140.5 L 519.4 140.5 L 519.4 147.0 L 523.1 147.0 " fill="#7F4C19"/>
<path class="atom-0" d="M 532.7 135.5 L 533.0 137.4 Q 534.5 135.3, 536.8 135.3 Q 537.5 135.3, 538.5 135.6 L 538.1 137.8 Q 537.0 137.5, 536.4 137.5 Q 535.2 137.5, 534.5 137.9 Q 533.8 138.4, 533.2 139.4 L 533.2 149.1 L 530.7 149.1 L 530.7 135.5 L 532.7 135.5 " fill="#7F4C19"/>
<path class="atom-2" d="M 573.0 41.6 Q 573.0 36.9, 575.2 34.5 Q 577.4 32.1, 581.5 32.1 Q 585.4 32.1, 587.4 34.8 L 585.7 36.2 Q 584.2 34.2, 581.5 34.2 Q 578.7 34.2, 577.2 36.1 Q 575.7 38.0, 575.7 41.6 Q 575.7 45.3, 577.3 47.2 Q 578.8 49.1, 581.8 49.1 Q 583.9 49.1, 586.3 47.8 L 587.0 49.8 Q 586.0 50.4, 584.6 50.8 Q 583.1 51.2, 581.4 51.2 Q 577.4 51.2, 575.2 48.7 Q 573.0 46.2, 573.0 41.6 " fill="#00CC00"/>
<path class="atom-2" d="M 588.5 30.9 L 590.9 30.9 L 590.9 50.9 L 588.5 50.9 L 588.5 30.9 " fill="#00CC00"/>
<path class="note" d="M 535.8 86.3 Q 535.8 84.4, 536.3 82.9 Q 536.9 81.3, 537.9 79.6 L 538.7 80.1 Q 537.8 81.7, 537.4 83.1 Q 537.0 84.5, 537.0 86.3 Q 537.0 88.1, 537.4 89.5 Q 537.8 90.9, 538.7 92.5 L 537.9 93.0 Q 536.9 91.3, 536.3 89.8 Q 535.8 88.2, 535.8 86.3 " fill="#000000"/>
<path class="note" d="M 544.0 90.1 L 541.8 86.2 L 541.8 86.2 L 540.3 86.2 L 540.3 90.1 L 539.0 90.1 L 539.0 80.7 L 541.8 80.7 Q 543.4 80.7, 544.2 81.5 Q 545.0 82.2, 545.0 83.5 Q 545.0 84.5, 544.5 85.1 Q 544.0 85.8, 543.1 86.1 L 545.4 90.1 L 544.0 90.1 M 540.3 85.2 L 541.8 85.2 Q 542.7 85.2, 543.2 84.7 Q 543.6 84.3, 543.6 83.5 Q 543.6 82.6, 543.2 82.2 Q 542.7 81.8, 541.8 81.8 L 540.3 81.8 L 540.3 85.2 " fill="#000000"/>
<path class="note" d="M 548.6 86.3 Q 548.6 88.2, 548.1 89.8 Q 547.5 91.3, 546.5 93.0 L 545.7 92.5 Q 546.6 90.9, 547.0 89.5 Q 547.4 88.1, 547.4 86.3 Q 547.4 84.5, 547.0 83.1 Q 546.6 81.7, 545.7 80.1 L 546.5 79.6 Q 547.5 81.3, 548.1 82.9 Q 548.6 84.4, 548.6 86.3 " fill="#000000"/>
<path class="legend" d="M 473.6 192.5 L 470.8 187.8 L 470.8 187.8 L 469.0 187.8 L 469.0 192.5 L 467.5 192.5 L 467.5 181.2 L 470.8 181.2 Q 472.7 181.2, 473.7 182.1 Q 474.7 182.9, 474.7 184.5 Q 474.7 185.7, 474.1 186.5 Q 473.5 187.3, 472.4 187.6 L 475.2 192.5 L 473.6 192.5 M 469.0 186.6 L 470.8 186.6 Q 471.9 186.6, 472.5 186.0 Q 473.1 185.5, 473.1 184.5 Q 473.1 183.5, 472.5 183.0 Q 471.9 182.5, 470.8 182.5 L 469.0 182.5 L 469.0 186.6 " fill="#000000"/>
<path class="legend" d="M 475.6 188.4 Q 475.6 186.4, 476.6 185.3 Q 477.6 184.1, 479.5 184.1 Q 481.3 184.1, 482.1 185.2 Q 482.9 186.3, 482.9 188.3 L 482.9 188.6 L 477.2 188.6 Q 477.2 190.0, 477.8 190.7 Q 478.4 191.4, 479.6 191.4 Q 480.3 191.4, 480.8 191.3 Q 481.4 191.1, 482.2 190.8 L 482.6 191.8 Q 481.8 192.3, 481.0 192.5 Q 480.3 192.6, 479.5 192.6 Q 477.7 192.6, 476.7 191.5 Q 475.6 190.4, 475.6 188.4 M 479.5 185.3 Q 478.5 185.3, 478.0 185.9 Q 477.4 186.4, 477.2 187.5 L 481.3 187.5 Q 481.2 186.4, 480.8 185.8 Q 480.3 185.3, 479.5 185.3 " fill="#000000"/>
<path class="legend" d="M 483.5 185.4 L 483.5 184.3 L 485.0 184.3 L 485.0 183.1 Q 485.0 181.7, 485.7 181.0 Q 486.4 180.3, 487.6 180.3 Q 488.1 180.3, 488.6 180.5 Q 489.0 180.6, 489.6 180.8 L 489.1 181.8 Q 488.4 181.5, 487.7 181.5 Q 487.1 181.5, 486.8 181.9 Q 486.5 182.3, 486.5 183.0 L 486.5 184.3 L 489.0 184.3 L 489.0 185.4 L 486.5 185.4 L 486.5 195.0 L 485.0 195.0 L 485.0 185.4 L 483.5 185.4 " fill="#000000"/>
<path class="legend" d="M 489.1 188.4 Q 489.1 186.4, 490.1 185.3 Q 491.2 184.1, 493.0 184.1 Q 494.8 184.1, 495.6 185.2 Q 496.4 186.3, 496.4 188.3 L 496.4 188.6 L 490.7 188.6 Q 490.7 190.0, 491.3 190.7 Q 492.0 191.4, 493.1 191.4 Q 493.8 191.4, 494.4 191.3 Q 494.9 191.1, 495.7 190.8 L 496.1 191.8 Q 495.3 192.3, 494.5 192.5 Q 493.8 192.6, 493.0 192.6 Q 491.2 192.6, 490.2 191.5 Q 489.1 190.4, 489.1 188.4 M 493.0 185.3 Q 492.0 185.3, 491.5 185.9 Q 490.9 186.4, 490.7 187.5 L 494.8 187.5 Q 494.7 186.4, 494.3 185.8 Q 493.8 185.3, 493.0 185.3 " fill="#000000"/>
<path class="legend" d="M 498.2 184.3 L 498.4 185.4 Q 499.3 184.1, 500.7 184.1 Q 501.1 184.1, 501.7 184.3 L 501.5 185.6 Q 500.8 185.5, 500.4 185.5 Q 499.8 185.5, 499.3 185.8 Q 498.9 186.0, 498.5 186.6 L 498.5 192.5 L 497.0 192.5 L 497.0 184.3 L 498.2 184.3 " fill="#000000"/>
<path class="legend" d="M 502.0 188.4 Q 502.0 186.4, 503.0 185.3 Q 504.0 184.1, 505.8 184.1 Q 507.6 184.1, 508.4 185.2 Q 509.3 186.3, 509.3 188.3 L 509.3 188.6 L 503.5 188.6 Q 503.6 190.0, 504.2 190.7 Q 504.8 191.4, 506.0 191.4 Q 506.6 191.4, 507.2 191.3 Q 507.8 191.1, 508.5 190.8 L 508.9 191.8 Q 508.1 192.3, 507.4 192.5 Q 506.7 192.6, 505.9 192.6 Q 504.0 192.6, 503.0 191.5 Q 502.0 190.4, 502.0 188.4 M 505.8 185.3 Q 504.9 185.3, 504.3 185.9 Q 503.8 186.4, 503.6 187.5 L 507.7 187.5 Q 507.6 186.4, 507.1 185.8 Q 506.7 185.3, 505.8 185.3 " fill="#000000"/>
<path class="legend" d="M 514.2 184.1 Q 515.5 184.1, 516.2 184.9 Q 516.9 185.6, 516.9 187.1 L 516.9 192.5 L 515.4 192.5 L 515.4 187.2 Q 515.4 186.2, 515.0 185.8 Q 514.6 185.3, 513.8 185.3 Q 513.0 185.3, 512.4 185.7 Q 511.8 186.0, 511.4 186.6 L 511.4 192.5 L 509.9 192.5 L 509.9 184.3 L 511.1 184.3 L 511.3 185.4 Q 512.4 184.1, 514.2 184.1 " fill="#000000"/>
<path class="legend" d="M 518.1 188.4 Q 518.1 186.4, 519.1 185.3 Q 520.1 184.1, 522.0 184.1 Q 523.9 184.1, 524.9 185.5 L 523.9 186.2 Q 523.5 185.8, 523.0 185.6 Q 522.6 185.3, 522.0 185.3 Q 520.9 185.3, 520.3 186.1 Q 519.6 186.9, 519.6 188.4 Q 519.6 189.9, 520.3 190.7 Q 520.9 191.4, 522.1 191.4 Q 522.8 191.4, 523.3 191.3 Q 523.7 191.1, 524.3 190.9 L 524.7 191.9 Q 523.5 192.6, 522.0 192.6 Q 520.1 192.6, 519.1 191.5 Q 518.1 190.4, 518.1 188.4 " fill="#000000"/>
<path class="legend" d="M 525.3 188.4 Q 525.3 186.4, 526.3 185.3 Q 527.3 184.1, 529.1 184.1 Q 530.9 184.1, 531.7 185.2 Q 532.5 186.3, 532.5 188.3 L 532.5 188.6 L 526.8 188.6 Q 526.8 190.0, 527.5 190.7 Q 528.1 191.4, 529.2 191.4 Q 529.9 191.4, 530.5 191.3 Q 531.1 191.1, 531.8 190.8 L 532.2 191.8 Q 531.4 192.3, 530.7 192.5 Q 529.9 192.6, 529.2 192.6 Q 527.3 192.6, 526.3 191.5 Q 525.3 190.4, 525.3 188.4 M 529.1 185.3 Q 528.2 185.3, 527.6 185.9 Q 527.0 186.4, 526.9 187.5 L 531.0 187.5 Q 530.8 186.4, 530.4 185.8 Q 530.0 185.3, 529.1 185.3 " fill="#000000"/>
</svg>